<?xml version="1.0" encoding="UTF-8"?>
<svg xmlns="http://www.w3.org/2000/svg" version="1.1" viewBox="0 0 512 512">
  <!-- Generator: Adobe Illustrator 30.0.0, SVG Export Plug-In . SVG Version: 2.1.1 Build 123)  -->
  <defs>
    <style>
      .st0, .st1 {
        fill: #fff;
      }

      .st2 {
        fill: #f6881f;
      }

      .st3 {
        fill: none;
      }

      .st3, .st1 {
        stroke: #fff;
        stroke-miterlimit: 10;
        stroke-width: 10px;
      }

      .st4 {
        display: none;
      }
    </style>
  </defs>
  <g id="Layer_2" class="st4">
    <rect width="512" height="512"/>
  </g>
  <g id="Square" class="st4">
    <path class="st2" d="M502,10v492H10V10h492M512,0H0v512h512V0h0Z"/>
  </g>
  <g id="Triangle">
    <path class="st2" d="M256,54.3l238.68,413.41H17.32L256,54.3M256,34.3L0,477.7h512L256,34.3h0Z"/>
  </g>
  <g id="_x36_" class="st4">
    <circle class="st0" cx="149" cy="128.25" r="51.58"/>
    <circle class="st0" cx="363" cy="128.25" r="51.58"/>
    <circle class="st0" cx="149" cy="255.62" r="51.58"/>
    <circle class="st0" cx="363" cy="256.5" r="51.58"/>
    <circle class="st0" cx="149" cy="382.98" r="51.58"/>
    <circle class="st0" cx="363" cy="384.75" r="51.58"/>
  </g>
  <g id="_x35_" class="st4">
    <circle class="st0" cx="129.02" cy="128.25" r="51.58"/>
    <circle class="st0" cx="382.98" cy="128.25" r="51.58"/>
    <circle class="st0" cx="256.5" cy="255.62" r="51.58"/>
    <circle class="st0" cx="129.02" cy="384.75" r="51.58"/>
    <circle class="st0" cx="382.98" cy="384.75" r="51.58"/>
  </g>
  <g id="_x34_" class="st4">
    <circle class="st0" cx="129" cy="128.25" r="51.58"/>
    <circle class="st0" cx="383" cy="128.25" r="51.58"/>
    <circle class="st0" cx="129" cy="384.75" r="51.58"/>
    <circle class="st0" cx="383" cy="382.98" r="51.58"/>
  </g>
  <g id="_x33_" class="st4">
    <circle class="st0" cx="129" cy="128.25" r="51.58"/>
    <circle class="st0" cx="382.98" cy="382.98" r="51.58"/>
    <circle class="st0" cx="256.5" cy="255.62" r="51.58"/>
  </g>
  <g id="_x32_" class="st4">
    <circle class="st0" cx="129" cy="128.25" r="51.58"/>
    <circle class="st0" cx="382.98" cy="382.98" r="51.58"/>
  </g>
  <g id="_x31_" class="st4">
    <circle class="st0" cx="256.5" cy="255.58" r="78.62"/>
  </g>
  <g id="D3_2" class="st4">
    <circle class="st0" cx="256.5" cy="249.01" r="51.58"/>
    <circle class="st0" cx="256.5" cy="414.45" r="51.58"/>
  </g>
  <g id="D3_1">
    <circle class="st0" cx="256.5" cy="338.48" r="78.62"/>
  </g>
  <g id="Scatter_1" class="st4">
    <circle class="st3" cx="256.5" cy="256.5" r="97.35"/>
    <circle class="st3" cx="256.5" cy="256.5" r="158.01"/>
    <rect class="st0" x="247.15" y="56.31" width="18.7" height="131.79"/>
    <rect class="st0" x="247.15" y="324.89" width="18.7" height="131.79"/>
    <rect class="st0" x="381.44" y="190.6" width="18.7" height="131.79" transform="translate(647.29 -134.29) rotate(90)"/>
    <rect class="st0" x="112.86" y="190.6" width="18.7" height="131.79" transform="translate(378.71 134.29) rotate(90)"/>
  </g>
  <g id="Scatter_2" class="st4">
    <polygon class="st1" points="406.89 103.3 172.83 122.59 226.32 176.08 52.05 350.36 158.99 457.3 333.24 283.05 386.7 336.51 406.89 103.3"/>
  </g>
</svg>