<?xml version="1.0" encoding="UTF-8"?>
<svg xmlns="http://www.w3.org/2000/svg" version="1.1" viewBox="0 0 512 512">
  <!-- Generator: Adobe Illustrator 30.0.0, SVG Export Plug-In . SVG Version: 2.1.1 Build 123)  -->
  <defs>
    <style>
      .st0 {
        fill: #fff;
      }

      .st1 {
        fill: #f6881f;
      }

      .st2 {
        display: none;
      }
    </style>
  </defs>
  <g id="Layer_2" class="st2">
    <rect width="512" height="512"/>
  </g>
  <g id="Layer_1">
    <path class="st1" d="M502,10v492H10V10h492M512,0H0v512h512V0h0Z"/>
  </g>
  <g id="_x36_" class="st2">
    <circle class="st0" cx="149" cy="128.25" r="51.58"/>
    <circle class="st0" cx="363" cy="128.25" r="51.58"/>
    <circle class="st0" cx="149" cy="255.62" r="51.58"/>
    <circle class="st0" cx="363" cy="256.5" r="51.58"/>
    <circle class="st0" cx="149" cy="382.98" r="51.58"/>
    <circle class="st0" cx="363" cy="384.75" r="51.58"/>
  </g>
  <g id="_x35_" class="st2">
    <circle class="st0" cx="129.02" cy="128.25" r="51.58"/>
    <circle class="st0" cx="382.98" cy="128.25" r="51.58"/>
    <circle class="st0" cx="256.5" cy="255.62" r="51.58"/>
    <circle class="st0" cx="129.02" cy="384.75" r="51.58"/>
    <circle class="st0" cx="382.98" cy="384.75" r="51.58"/>
  </g>
  <g id="_x34_" class="st2">
    <circle class="st0" cx="129" cy="128.25" r="51.58"/>
    <circle class="st0" cx="383" cy="128.25" r="51.58"/>
    <circle class="st0" cx="129" cy="384.75" r="51.58"/>
    <circle class="st0" cx="383" cy="382.98" r="51.58"/>
  </g>
  <g id="_x34__copy">
    <circle class="st0" cx="129" cy="128.25" r="51.58"/>
    <circle class="st0" cx="382.98" cy="382.98" r="51.58"/>
    <circle class="st0" cx="256.5" cy="255.62" r="51.58"/>
  </g>
</svg>