<?xml version="1.0" encoding="UTF-8"?>
<svg xmlns="http://www.w3.org/2000/svg" version="1.1" viewBox="0 0 512 512">
  <!-- Generator: Adobe Illustrator 30.0.0, SVG Export Plug-In . SVG Version: 2.1.1 Build 123)  -->
  <defs>
    <style>
      .st0, .st1 {
        fill: #fff;
      }

      .st2 {
        fill: #f6881f;
      }

      .st3 {
        fill: none;
      }

      .st3, .st1 {
        stroke: #fff;
        stroke-miterlimit: 10;
        stroke-width: 10px;
      }

      .st4 {
        display: none;
      }
    </style>
  </defs>
  <g id="Layer_2" class="st4">
    <rect width="512" height="512"/>
  </g>
  <g id="Square" class="st4">
    <path class="st2" d="M502,10v492H10V10h492M512,0H0v512h512V0h0Z"/>
  </g>
  <g id="Triangle" class="st4">
    <path class="st2" d="M256,54.3l238.68,413.41H17.32L256,54.3M256,34.3L0,477.7h512L256,34.3h0Z"/>
  </g>
  <g id="Circle">
    <path class="st2" d="M254.19,13c32.55,0,64.13,6.42,93.85,19.08,28.72,12.23,54.51,29.75,76.67,52.06,22.16,22.32,39.56,48.31,51.71,77.25,12.58,29.96,18.96,61.79,18.96,94.61s-6.38,64.65-18.96,94.61c-12.15,28.94-29.55,54.93-51.71,77.25-22.16,22.31-47.95,39.83-76.67,52.06-29.72,12.66-61.29,19.08-93.85,19.08s-64.13-6.42-93.85-19.08c-28.72-12.23-54.51-29.75-76.67-52.06-22.16-22.32-39.56-48.31-51.71-77.25-12.58-29.96-18.96-61.79-18.96-94.61s6.38-64.65,18.96-94.61c12.15-28.94,29.55-54.93,51.71-77.25,22.16-22.31,47.95-39.83,76.67-52.06,29.72-12.66,61.29-19.08,93.85-19.08M254.19,0C113.8,0,0,114.62,0,256s113.8,256,254.19,256,254.19-114.62,254.19-256S394.57,0,254.19,0h0Z"/>
  </g>
  <g id="_x36_" class="st4">
    <circle class="st0" cx="149" cy="128.25" r="51.58"/>
    <circle class="st0" cx="363" cy="128.25" r="51.58"/>
    <circle class="st0" cx="149" cy="255.62" r="51.58"/>
    <circle class="st0" cx="363" cy="256.5" r="51.58"/>
    <circle class="st0" cx="149" cy="382.98" r="51.58"/>
    <circle class="st0" cx="363" cy="384.75" r="51.58"/>
  </g>
  <g id="_x35_" class="st4">
    <circle class="st0" cx="129.02" cy="128.25" r="51.58"/>
    <circle class="st0" cx="382.98" cy="128.25" r="51.58"/>
    <circle class="st0" cx="256.5" cy="255.62" r="51.58"/>
    <circle class="st0" cx="129.02" cy="384.75" r="51.58"/>
    <circle class="st0" cx="382.98" cy="384.75" r="51.58"/>
  </g>
  <g id="_x34_" class="st4">
    <circle class="st0" cx="129" cy="128.25" r="51.58"/>
    <circle class="st0" cx="383" cy="128.25" r="51.58"/>
    <circle class="st0" cx="129" cy="384.75" r="51.58"/>
    <circle class="st0" cx="383" cy="382.98" r="51.58"/>
  </g>
  <g id="_x33_" class="st4">
    <circle class="st0" cx="129" cy="128.25" r="51.58"/>
    <circle class="st0" cx="382.98" cy="382.98" r="51.58"/>
    <circle class="st0" cx="256.5" cy="255.62" r="51.58"/>
  </g>
  <g id="_x32_" class="st4">
    <circle class="st0" cx="129" cy="128.25" r="51.58"/>
    <circle class="st0" cx="382.98" cy="382.98" r="51.58"/>
  </g>
  <g id="_x31_" class="st4">
    <circle class="st0" cx="256.5" cy="255.58" r="78.62"/>
  </g>
  <g id="D3_2" class="st4">
    <circle class="st0" cx="256.5" cy="239.01" r="51.58"/>
    <circle class="st0" cx="173.16" cy="384.45" r="51.58"/>
    <circle class="st0" cx="338.84" cy="384.45" r="51.58"/>
  </g>
  <g id="D3_1" class="st4">
    <circle class="st0" cx="256.5" cy="338.48" r="78.62"/>
  </g>
  <g id="Scatter_1" class="st4">
    <circle class="st3" cx="256.5" cy="256.5" r="88.57"/>
    <circle class="st3" cx="256.5" cy="256.5" r="143.77"/>
    <rect class="st0" x="247.99" y="74.36" width="17.01" height="119.91"/>
    <rect class="st0" x="247.99" y="318.73" width="17.01" height="119.91"/>
    <rect class="st0" x="370.18" y="196.55" width="17.01" height="119.91" transform="translate(635.18 -122.18) rotate(90)"/>
    <rect class="st0" x="125.81" y="196.55" width="17.01" height="119.91" transform="translate(390.82 122.18) rotate(90)"/>
  </g>
  <g id="Scatter_2">
    <polygon class="st1" points="372.95 137.04 191.53 151.99 232.99 193.46 97.91 328.54 180.8 411.43 315.86 276.36 357.31 317.81 372.95 137.04"/>
  </g>
</svg>