<?xml version="1.0" encoding="UTF-8"?>
<svg xmlns="http://www.w3.org/2000/svg" version="1.1" viewBox="0 0 512 512">
  <!-- Generator: Adobe Illustrator 30.0.0, SVG Export Plug-In . SVG Version: 2.1.1 Build 123)  -->
  <defs>
    <style>
      .st0, .st1 {
        fill: #fff;
      }

      .st2 {
        fill: #f6881f;
      }

      .st3 {
        fill: none;
      }

      .st3, .st1 {
        stroke: #fff;
        stroke-miterlimit: 10;
        stroke-width: 10px;
      }

      .st4 {
        display: none;
      }
    </style>
  </defs>
  <g id="Layer_2" class="st4">
    <rect width="512" height="512"/>
  </g>
  <g id="Square" class="st4">
    <path class="st2" d="M502,10v492H10V10h492M512,0H0v512h512V0h0Z"/>
  </g>
  <g id="Triangle" class="st4">
    <path class="st2" d="M256,54.3l238.68,413.41H17.32L256,54.3M256,34.3L0,477.7h512L256,34.3h0Z"/>
  </g>
  <g id="Circle">
    <path class="st2" d="M255.04,10c33.08,0,65.16,6.5,95.36,19.32,29.18,12.39,55.38,30.12,77.89,52.72,22.51,22.6,40.18,48.9,52.53,78.2,12.78,30.33,19.26,62.54,19.26,95.76s-6.48,65.44-19.26,95.76c-12.34,29.29-30.02,55.6-52.53,78.2-22.51,22.59-48.71,40.33-77.89,52.72-30.2,12.82-62.28,19.32-95.36,19.32s-65.16-6.5-95.36-19.32c-29.18-12.39-55.38-30.12-77.89-52.72-22.51-22.6-40.18-48.9-52.53-78.2-12.78-30.33-19.26-62.54-19.26-95.76s6.48-65.44,19.26-95.76c12.34-29.29,30.02-55.6,52.53-78.2,22.51-22.59,48.71-40.33,77.89-52.72,30.2-12.82,62.28-19.32,95.36-19.32M255.04,0C114.18,0,0,114.62,0,256s114.18,256,255.04,256,255.04-114.62,255.04-256S395.89,0,255.04,0h0Z"/>
  </g>
  <g id="_x36_" class="st4">
    <circle class="st0" cx="149" cy="128.25" r="51.58"/>
    <circle class="st0" cx="363" cy="128.25" r="51.58"/>
    <circle class="st0" cx="149" cy="255.62" r="51.58"/>
    <circle class="st0" cx="363" cy="256.5" r="51.58"/>
    <circle class="st0" cx="149" cy="382.98" r="51.58"/>
    <circle class="st0" cx="363" cy="384.75" r="51.58"/>
  </g>
  <g id="_x35_" class="st4">
    <circle class="st0" cx="129.02" cy="128.25" r="51.58"/>
    <circle class="st0" cx="382.98" cy="128.25" r="51.58"/>
    <circle class="st0" cx="256.5" cy="255.62" r="51.58"/>
    <circle class="st0" cx="129.02" cy="384.75" r="51.58"/>
    <circle class="st0" cx="382.98" cy="384.75" r="51.58"/>
  </g>
  <g id="_x34_" class="st4">
    <circle class="st0" cx="129" cy="128.25" r="51.58"/>
    <circle class="st0" cx="383" cy="128.25" r="51.58"/>
    <circle class="st0" cx="129" cy="384.75" r="51.58"/>
    <circle class="st0" cx="383" cy="382.98" r="51.58"/>
  </g>
  <g id="_x33_" class="st4">
    <circle class="st0" cx="129" cy="128.25" r="51.58"/>
    <circle class="st0" cx="382.98" cy="382.98" r="51.58"/>
    <circle class="st0" cx="256.5" cy="255.62" r="51.58"/>
  </g>
  <g id="_x32_" class="st4">
    <circle class="st0" cx="129" cy="128.25" r="51.58"/>
    <circle class="st0" cx="382.98" cy="382.98" r="51.58"/>
  </g>
  <g id="_x31_" class="st4">
    <circle class="st0" cx="256.5" cy="255.58" r="78.62"/>
  </g>
  <g id="D3_2" class="st4">
    <circle class="st0" cx="256.5" cy="239.01" r="51.58"/>
    <circle class="st0" cx="173.16" cy="384.45" r="51.58"/>
    <circle class="st0" cx="338.84" cy="384.45" r="51.58"/>
  </g>
  <g id="D3_1" class="st4">
    <circle class="st0" cx="256.5" cy="338.48" r="78.62"/>
  </g>
  <g id="Scatter_1" class="st4">
    <circle class="st3" cx="256.5" cy="256.5" r="91.47"/>
    <circle class="st3" cx="256.5" cy="256.5" r="148.47"/>
    <rect class="st0" x="247.72" y="68.41" width="17.57" height="123.83"/>
    <rect class="st0" x="247.72" y="320.76" width="17.57" height="123.83"/>
    <rect class="st0" x="373.89" y="194.59" width="17.57" height="123.83" transform="translate(639.18 -126.18) rotate(90)"/>
    <rect class="st0" x="121.54" y="194.59" width="17.57" height="123.83" transform="translate(386.82 126.18) rotate(90)"/>
  </g>
  <g id="Scatter_2">
    <polygon class="st1" points="377.22 132.8 189.18 148.29 232.16 191.27 92.15 331.28 178.06 417.19 318.05 277.2 361 320.16 377.22 132.8"/>
  </g>
</svg>