<?xml version="1.0" encoding="UTF-8"?>
<svg id="Layer_1" xmlns="http://www.w3.org/2000/svg" version="1.1" viewBox="0 0 31.05 33.18">
  <!-- Generator: Adobe Illustrator 29.8.2, SVG Export Plug-In . SVG Version: 2.1.1 Build 3)  -->
  <defs>
    <style>
      .st0 {
        fill: #fff;
      }
    </style>
  </defs>
  <path class="st0" d="M23.87,17.75l-2.58,2.17-.97.82-2.78,2.34-.47.39-1.54,1.3-1.54-1.3-.47-.39-2.78-2.34-.97-.82-2.59-2.18-4.69-3.94,13.03,19.37,13.03-19.37-4.68,3.94ZM9.12,16.07c0,1.02.56,1.95,1.45,2.4.14.07.28.12.43.17h0s.08.03.13.04c.21.05.43.08.64.08.43,0,.84-.1,1.21-.29.89-.46,1.44-1.36,1.44-2.35,0-.75-.32-1.47-.88-1.97-.56-.51-1.3-.75-2.06-.67-1.16.12-2.1,1.01-2.32,2.14h0c0,.06-.02.12-.02.18-.01.09-.02.19-.02.28M14.61,18.68l-.21,1.1c-.04.23.22.4.41.25l.55-.42s.1-.05.16-.05.11.02.15.05l.56.42c.19.15.46-.02.41-.25l-.21-1.1s-.03-.09-.07-.13l-.27-.28-.4-.41c-.05-.05-.12-.08-.18-.08-.07,0-.14.03-.19.08l-.39.41-.27.28s-.06.08-.07.13M17.41,16.94l3.05.9s.05.01.07.02c.12.02.24,0,.35-.04.11-.05.21-.13.27-.24l.76-1.25c.07-.11.09-.23.08-.35,0-.12-.05-.23-.12-.33-.05-.07-.11-.12-.19-.17l-.93-.51c-.14-.08-.32-.09-.48-.04l-3.08.98s-.02.01-.03.02c-.34.32-.18.88.26,1.01M6.73,16.37l1.09-2.12s-.01-.16-.05-.41c-.03-.18-.06-.41-.09-.68-.14-1.09-.34-2.78-.34-4.05,0-1.14.9-2.7,1.66-3.55.75-.84,1.68-1.54,2.75-2.04,1.13-.53,2.42-.83,3.77-.83h0s0,0,0,0c1.36,0,2.64.3,3.77.83,1.06.49,2,1.19,2.75,2.04.75.85,1.66,2.41,1.66,3.55,0,.64-.05,1.38-.12,2.09-.07.72-.15,1.41-.23,1.96-.03.27-.07.5-.09.68-.03.25-.05.4-.05.4l1.09,2.12-8.8,7.41-8.8-7.41ZM11.34,17.84c.14.03.28.05.43.05.29,0,.57-.07.82-.2.58-.29.97-.9.97-1.59,0-1.05-.91-1.89-1.98-1.77-.82.08-1.49.74-1.58,1.56-.11.93.5,1.74,1.34,1.95M9.46,16.63c-.05-.2-.07-.41-.06-.63h0c0-.06,0-.12.02-.18.12-1.09,1.01-1.96,2.1-2.08.09,0,.18-.01.26-.01.59,0,1.15.21,1.59.61.5.45.78,1.09.78,1.76,0,.89-.49,1.7-1.29,2.11-.34.17-.7.26-1.09.26-.19,0-.38-.03-.57-.07-.15-.04-.3-.09-.43-.15-.19-.09-.37-.2-.53-.34h0c-.39-.33-.67-.78-.78-1.29M31.05,15.52c0,7.71-5.65,14.12-13.03,15.32l1.02-1.51c6.16-1.57,10.73-7.16,10.73-13.81,0-.66-.05-1.31-.13-1.95-.07-.49-.16-.98-.28-1.45-1.53-6.22-7.15-10.85-13.83-10.85S3.22,5.91,1.69,12.13c-.12.47-.21.96-.28,1.45-.09.64-.13,1.28-.13,1.95,0,6.64,4.57,12.24,10.73,13.81l1.02,1.51C5.65,29.65,0,23.23,0,15.52c0-1.19.14-2.35.39-3.46.06-.28.14-.57.22-.84C2.48,4.75,8.46,0,15.53,0s13.05,4.75,14.92,11.22c.08.28.15.56.21.84.26,1.11.39,2.27.39,3.46"/>
</svg>