<?xml version="1.0" encoding="UTF-8"?>
<svg xmlns="http://www.w3.org/2000/svg" version="1.1" xmlns:cc="http://creativecommons.org/ns#" xmlns:dc="http://purl.org/dc/elements/1.1/" xmlns:inkscape="http://www.inkscape.org/namespaces/inkscape" xmlns:rdf="http://www.w3.org/1999/02/22-rdf-syntax-ns#" xmlns:sodipodi="http://sodipodi.sourceforge.net/DTD/sodipodi-0.dtd" xmlns:svg="http://www.w3.org/2000/svg" viewBox="0 0 2160 1584">
  <!-- Generator: Adobe Illustrator 30.0.0, SVG Export Plug-In . SVG Version: 2.1.1 Build 123)  -->
  <defs>
    <style>
      .st0, .st1 {
        opacity: .3;
      }

      .st0, .st2 {
        fill: red;
      }

      .st0, .st3 {
        display: none;
      }

      .st4 {
        stroke-width: 2.67px;
      }

      .st4, .st5, .st6 {
        stroke: #000;
        stroke-miterlimit: 11.34;
      }

      .st7 {
        fill: #fff;
      }

      .st5 {
        stroke-width: 2.76px;
      }

      .st8 {
        fill: blue;
      }

      .st6 {
        stroke-width: 5px;
      }

      .st9 {
        fill: #f80;
      }

      .st10 {
        opacity: .5;
      }
    </style>
  </defs>
  <g id="WhiteBG">
    <g id="layer4">
      <rect id="rect1" class="st7" x="1.42" y="1.42" width="2157.17" height="1581.17"/>
    </g>
  </g>
  <g id="Layer_4">
    <g id="layer41" data-name="layer4" class="st1">
      <rect id="rect11" data-name="rect1" class="st8" x="972.67" y="396.67" width="214.66" height="2160" transform="translate(2556.67 396.67) rotate(90)"/>
    </g>
    <g id="layer42" data-name="layer4" class="st1">
      <rect id="rect12" data-name="rect1" class="st2" x="972.06" y="-969.19" width="215.92" height="2157.14" transform="translate(1189.39 -970.64) rotate(90)"/>
    </g>
    <polygon class="st0" points="1080 1.42 1.42 792 1.42 1.42 1080 1.42"/>
    <polygon class="st0" points="2160 792 2160 0 1080 1.42 2160 792"/>
    <g id="layer43" data-name="layer4" class="st1">
      <rect id="rect13" data-name="rect1" class="st2" x="684.72" y="-681.86" width="790.58" height="2157.14" transform="translate(1476.72 -683.31) rotate(90)"/>
    </g>
    <g id="layer44" data-name="layer4" class="st1">
      <rect id="rect14" data-name="rect1" class="st8" x="684.67" y="108.67" width="790.66" height="2160" transform="translate(2268.67 108.67) rotate(90)"/>
    </g>
  </g>
  <g id="svg1" inkscape:version="1.4.2 (ebf0e940d0, 2025-05-08)">
    <g id="layer3" class="st10" inkscape:groupmode="layer" inkscape:label="GridLines" sodipodi:insensitive="true">
      <g id="layer2" inkscape:groupmode="layer" inkscape:label="Horizontals">
        <path id="path2-1" class="st4" d="M0,73.34h2160" sodipodi:nodetypes="cc"/>
        <path id="path2-1-7" class="st4" d="M0,145.34h2160" sodipodi:nodetypes="cc"/>
        <path id="path2-1-9" class="st4" d="M0,217.34h2160" sodipodi:nodetypes="cc"/>
        <path id="path2-1-5" class="st4" d="M0,289.34h2160" sodipodi:nodetypes="cc"/>
        <path id="path2-1-7-2" class="st4" d="M0,361.34h2160" sodipodi:nodetypes="cc"/>
        <path id="path2-1-9-5" class="st4" d="M0,433.34h2160" sodipodi:nodetypes="cc"/>
        <path id="path2-1-4" class="st4" d="M0,505.34h2160" sodipodi:nodetypes="cc"/>
        <path id="path2-1-7-3" class="st4" d="M0,577.34h2160" sodipodi:nodetypes="cc"/>
        <path id="path2-1-9-0" class="st4" d="M0,649.34h2160" sodipodi:nodetypes="cc"/>
        <path id="path2-1-8" class="st4" d="M0,721.34h2160" sodipodi:nodetypes="cc"/>
        <path id="path2-1-7-8" class="st4" d="M0,793.34h2160" sodipodi:nodetypes="cc"/>
        <path id="path2-1-9-4" class="st4" d="M0,865.34h2160" sodipodi:nodetypes="cc"/>
        <path id="path2-1-5-3" class="st4" d="M0,937.34h2160" sodipodi:nodetypes="cc"/>
        <path id="path2-1-7-2-1" class="st4" d="M0,1009.34h2160" sodipodi:nodetypes="cc"/>
        <path id="path2-1-9-5-4" class="st4" d="M0,1081.34h2160" sodipodi:nodetypes="cc"/>
        <path id="path2-1-4-9" class="st4" d="M0,1153.34h2160" sodipodi:nodetypes="cc"/>
        <path id="path2-1-7-3-2" class="st4" d="M0,1225.34h2160" sodipodi:nodetypes="cc"/>
        <path id="path2-1-9-0-0" class="st4" d="M0,1297.34h2160" sodipodi:nodetypes="cc"/>
        <path id="path2-1-9-5-4-2" class="st4" d="M0,1369.34h2160" sodipodi:nodetypes="cc"/>
        <path id="path2-1-4-9-6" class="st4" d="M0,1441.34h2160" sodipodi:nodetypes="cc"/>
        <path id="path2-1-7-3-2-6" class="st4" d="M0,1513.34h2160" sodipodi:nodetypes="cc"/>
      </g>
      <g id="layer1" inkscape:groupmode="layer" inkscape:label="Verticals">
        <path id="path2" class="st5" d="M73.38,0v1584"/>
        <path id="path2-5" class="st5" d="M145.38,0v1584"/>
        <path id="path2-0" class="st5" d="M217.38,0v1584"/>
        <path id="path2-5-9" class="st5" d="M289.39,0v1584"/>
        <path id="path2-6" class="st5" d="M361.39,0v1584"/>
        <path id="path2-5-2" class="st5" d="M433.39,0v1584"/>
        <path id="path2-0-6" class="st5" d="M505.39,0v1584"/>
        <path id="path2-5-9-1" class="st5" d="M577.4,0v1584"/>
        <path id="path2-2" class="st5" d="M649.4,0v1584"/>
        <path id="path2-5-0" class="st5" d="M721.4,0v1584"/>
        <path id="path2-0-2" class="st5" d="M793.41,0v1584"/>
        <path id="path2-5-9-3" class="st5" d="M865.41,0v1584"/>
        <path id="path2-6-7" class="st5" d="M937.41,0v1584"/>
        <path id="path2-5-2-5" class="st5" d="M1009.41,0v1584"/>
        <path id="path2-0-6-9" class="st5" d="M1081.42,0v1584"/>
        <path id="path2-5-9-1-2" class="st5" d="M1153.42,0v1584"/>
        <path id="path2-7" class="st5" d="M1225.42,0v1584"/>
        <path id="path2-5-3" class="st5" d="M1297.43,0v1584"/>
        <path id="path2-0-61" class="st5" d="M1369.43,0v1584"/>
        <path id="path2-5-9-2" class="st5" d="M1441.43,0v1584"/>
        <path id="path2-6-9" class="st5" d="M1513.43,0v1584"/>
        <path id="path2-5-2-3" class="st5" d="M1585.44,0v1584"/>
        <path id="path2-0-6-1" class="st5" d="M1657.44,0v1584"/>
        <path id="path2-5-9-1-9" class="st5" d="M1729.44,0v1584"/>
        <path id="path2-4" class="st5" d="M1801.45,0v1584"/>
        <path id="path2-5-5" class="st5" d="M1873.45,0v1584"/>
        <path id="path2-0-0" class="st5" d="M1945.45,0v1584"/>
        <path id="path2-5-9-36" class="st5" d="M2017.45,0v1584"/>
        <path id="path2-6-1" class="st5" d="M2089.46,0v1584"/>
      </g>
    </g>
  </g>
  <g id="centerline">
    <path id="path2-0-6-91" data-name="path2-0-6-9" class="st6" d="M1080,0v1584"/>
    <path id="path2-1-7-81" data-name="path2-1-7-8" class="st6" d="M0,793.34h2160" sodipodi:nodetypes="cc"/>
  </g>
  <g id="Layer_6" class="st3">
    <g>
      <circle cx="1081.42" cy="505.34" r="72.24"/>
      <path class="st7" d="M1087.74,466.36v61.86h18.24v11.52h-49.12v-11.52h18.45v-44.13l-11.01,11.52-6.62-9.89,18.85-19.36h11.21Z"/>
    </g>
    <g>
      <circle cx="577.4" cy="434.26" r="72.24"/>
      <path class="st7" d="M593.5,395.28l8.76,13.15v10.09l-36.89,38.22v.41h36.89v11.52h-49.12v-15.7l37.71-38.73-4.99-7.44h-18.45l-8.36,8.26-6.52-9.48,10.09-10.29h30.88Z"/>
    </g>
    <g>
      <circle cx="1585.44" cy="433.34" r="72.24"/>
      <path class="st7" d="M1610.1,394.36v11.42l-17.53,18.14h6.93l10.6,15.9v17.73l-9.68,10.19h-39.65v-11.52h34.55l2.55-2.45v-11.72l-6.01-8.66h-15.59v-9.07l17.94-18.45h-33.43v-11.52h49.33Z"/>
    </g>
    <g>
      <circle cx="73.38" cy="433.34" r="71.03"/>
      <path class="st9" d="M107.02,419.29c0-16.66-12.82-30.29-34.18-30.29s-33.11,13.63-33.11,30.29,4.7,14.52,4.7,23.93c0,3.53-3.42,1.82-3.42,9.4,0,8.33,11.64,7.16,15.06,10.57,3.41,3.42,3.09,9.73,3.09,9.73,0,0,.64,2.56,1.82,1.81,0,0,.75,1.82,1.6.75,0,0,.85,1.81,1.71.32,0,0,.86,2.03,2.24.53,0,0,1.39,2.03,3,.43,0,0,1.81,1.71,3.84.43,2.03,1.28,3.84-.43,3.84-.43,1.6,1.6,3-.43,3-.43,1.39,1.5,2.23-.53,2.23-.53.86,1.49,1.71-.32,1.71-.32.86,1.07,1.61-.75,1.61-.75,1.17.75,1.81-1.81,1.81-1.81,0,0-.32-6.3,3.1-9.72,3.42-3.41,15.06-2.24,15.06-10.57,0-7.59-3.41-5.88-3.41-9.4,0-9.4,4.7-7.27,4.7-23.93h-.01ZM56.74,451.02c-5.74.92-8.34-.69-8.97-4.8-1.64-10.72,8.23-12.45,13.14-11.86,2.35.28,6.41,2.78,6.41,5.88,0,8.33-5.24,9.93-10.58,10.79h0ZM76.47,464.9c-1.06,0-2.77-1.39-2.88-3.95-.11,2.56-2.03,3.95-3.09,3.95s-2.67-1.06-2.78-3.63c-.11-2.56,3.31-12.92,5.77-12.92s5.88,10.36,5.77,12.92-1.71,3.63-2.78,3.63h0ZM98.69,446.22c-.62,4.11-3.23,5.72-8.97,4.8-5.34-.86-10.57-2.46-10.57-10.79,0-3.1,4.06-5.6,6.41-5.88,4.91-.59,14.78,1.14,13.14,11.86h0Z"/>
    </g>
    <g>
      <circle cx="2089.46" cy="433.34" r="71.03"/>
      <path class="st9" d="M2123.1,419.29c0-16.66-12.82-30.29-34.18-30.29s-33.11,13.63-33.11,30.29,4.7,14.52,4.7,23.93c0,3.53-3.42,1.82-3.42,9.4,0,8.33,11.64,7.16,15.06,10.57,3.41,3.42,3.09,9.73,3.09,9.73,0,0,.64,2.56,1.82,1.81,0,0,.75,1.82,1.6.75,0,0,.85,1.81,1.71.32,0,0,.86,2.03,2.24.53,0,0,1.39,2.03,3,.43,0,0,1.81,1.71,3.84.43,2.03,1.28,3.84-.43,3.84-.43,1.6,1.6,3-.43,3-.43,1.39,1.5,2.23-.53,2.23-.53.86,1.49,1.71-.32,1.71-.32.86,1.07,1.61-.75,1.61-.75,1.17.75,1.81-1.81,1.81-1.81,0,0-.32-6.3,3.1-9.72,3.42-3.41,15.06-2.24,15.06-10.57,0-7.59-3.41-5.88-3.41-9.4,0-9.4,4.7-7.27,4.7-23.93h-.01ZM2072.81,451.02c-5.74.92-8.34-.69-8.97-4.8-1.64-10.72,8.23-12.45,13.14-11.86,2.35.28,6.41,2.78,6.41,5.88,0,8.33-5.24,9.93-10.58,10.79h0ZM2092.55,464.9c-1.06,0-2.77-1.39-2.88-3.95-.11,2.56-2.03,3.95-3.09,3.95s-2.67-1.06-2.78-3.63c-.11-2.56,3.31-12.92,5.77-12.92s5.88,10.36,5.77,12.92-1.71,3.63-2.78,3.63h0ZM2114.77,446.22c-.62,4.11-3.23,5.72-8.97,4.8-5.34-.86-10.57-2.46-10.57-10.79,0-3.1,4.06-5.6,6.41-5.88,4.91-.59,14.78,1.14,13.14,11.86h0Z"/>
    </g>
  </g>
  <g id="Layer_7">
    <g>
      <g id="Layer_2">
        <circle cx="1081.42" cy="1153.34" r="56.69"/>
      </g>
      <g id="Layer_3">
        <path class="st7" d="M1086.38,1122.75v48.55h14.32v9.04h-38.55v-9.04h14.48v-34.63l-8.64,9.04-5.2-7.76,14.8-15.2h8.8Z"/>
      </g>
    </g>
    <g>
      <g id="Layer_21" data-name="Layer_2">
        <circle cx="1657.44" cy="793.34" r="56.69"/>
      </g>
      <g id="Layer_31" data-name="Layer_3">
        <path class="st7" d="M1676.8,762.75v8.96l-13.76,14.24h5.44l8.32,12.48v13.92l-7.6,8h-31.11v-9.04h27.11l2-1.92v-9.2l-4.72-6.8h-12.24v-7.12l14.08-14.48h-26.23v-9.04h38.71Z"/>
      </g>
    </g>
    <g>
      <g id="Layer_22" data-name="Layer_2">
        <circle cx="505.39" cy="433.34" r="56.69"/>
      </g>
      <g id="Layer_32" data-name="Layer_3">
        <path class="st7" d="M518.03,402.75l6.88,10.32v7.92l-28.95,29.99v.32h28.95v9.04h-38.55v-12.32l29.59-30.39-3.92-5.84h-14.48l-6.56,6.48-5.12-7.44,7.92-8.08h24.24Z"/>
      </g>
    </g>
  </g>
</svg>