<?xml version="1.0" encoding="UTF-8"?>
<svg id="svg1" xmlns="http://www.w3.org/2000/svg" version="1.1" xmlns:cc="http://creativecommons.org/ns#" xmlns:dc="http://purl.org/dc/elements/1.1/" xmlns:inkscape="http://www.inkscape.org/namespaces/inkscape" xmlns:rdf="http://www.w3.org/1999/02/22-rdf-syntax-ns#" xmlns:sodipodi="http://sodipodi.sourceforge.net/DTD/sodipodi-0.dtd" xmlns:svg="http://www.w3.org/2000/svg" viewBox="0 0 2160 1584">
  <!-- Generator: Adobe Illustrator 30.0.0, SVG Export Plug-In . SVG Version: 2.1.1 Build 123)  -->
  <defs>
    <style>
      .st0 {
        stroke-width: 2.76px;
      }

      .st0, .st1, .st2 {
        stroke: #000;
        stroke-miterlimit: 11.34;
      }

      .st1 {
        fill: #fff;
        stroke-width: 2.83px;
      }

      .st3 {
        opacity: .5;
      }

      .st2 {
        stroke-width: 2.67px;
      }
    </style>
  </defs>
  <sodipodi:namedview id="base" bordercolor="#000000" borderopacity="0.3" inkscape:current-layer="layer5" inkscape:cx="1554.2857" inkscape:cy="1098.5714" inkscape:deskcolor="#505050" inkscape:document-units="in" inkscape:pagecheckerboard="0" inkscape:pageopacity="0.0" inkscape:pageshadow="2" inkscape:showpageshadow="0" inkscape:window-height="1048" inkscape:window-maximized="1" inkscape:window-width="1920" inkscape:window-x="0" inkscape:window-y="0" inkscape:zoom="0.35" pagecolor="#ffffff"/>
  <g id="layer4" inkscape:groupmode="layer" inkscape:label="WhiteBG" sodipodi:insensitive="true">
    <rect id="rect1" class="st1" x="1.42" y="1.42" width="2157.17" height="1581.17" inkscape:label="rect1"/>
  </g>
  <g id="layer3" class="st3" inkscape:groupmode="layer" inkscape:label="GridLines" sodipodi:insensitive="true">
    <g id="layer2" inkscape:groupmode="layer" inkscape:label="Horizontals">
      <path id="path2-1" class="st2" d="M0,73.34h2160" sodipodi:nodetypes="cc"/>
      <path id="path2-1-7" class="st2" d="M0,145.34h2160" sodipodi:nodetypes="cc"/>
      <path id="path2-1-9" class="st2" d="M0,217.34h2160" sodipodi:nodetypes="cc"/>
      <path id="path2-1-5" class="st2" d="M0,289.34h2160" sodipodi:nodetypes="cc"/>
      <path id="path2-1-7-2" class="st2" d="M0,361.34h2160" sodipodi:nodetypes="cc"/>
      <path id="path2-1-9-5" class="st2" d="M0,433.34h2160" sodipodi:nodetypes="cc"/>
      <path id="path2-1-4" class="st2" d="M0,505.34h2160" sodipodi:nodetypes="cc"/>
      <path id="path2-1-7-3" class="st2" d="M0,577.34h2160" sodipodi:nodetypes="cc"/>
      <path id="path2-1-9-0" class="st2" d="M0,649.34h2160" sodipodi:nodetypes="cc"/>
      <path id="path2-1-8" class="st2" d="M0,721.34h2160" sodipodi:nodetypes="cc"/>
      <path id="path2-1-7-8" class="st2" d="M0,793.34h2160" sodipodi:nodetypes="cc"/>
      <path id="path2-1-9-4" class="st2" d="M0,865.34h2160" sodipodi:nodetypes="cc"/>
      <path id="path2-1-5-3" class="st2" d="M0,937.34h2160" sodipodi:nodetypes="cc"/>
      <path id="path2-1-7-2-1" class="st2" d="M0,1009.34h2160" sodipodi:nodetypes="cc"/>
      <path id="path2-1-9-5-4" class="st2" d="M0,1081.34h2160" sodipodi:nodetypes="cc"/>
      <path id="path2-1-4-9" class="st2" d="M0,1153.34h2160" sodipodi:nodetypes="cc"/>
      <path id="path2-1-7-3-2" class="st2" d="M0,1225.34h2160" sodipodi:nodetypes="cc"/>
      <path id="path2-1-9-0-0" class="st2" d="M0,1297.34h2160" sodipodi:nodetypes="cc"/>
      <path id="path2-1-9-5-4-2" class="st2" d="M0,1369.34h2160" sodipodi:nodetypes="cc"/>
      <path id="path2-1-4-9-6" class="st2" d="M0,1441.34h2160" sodipodi:nodetypes="cc"/>
      <path id="path2-1-7-3-2-6" class="st2" d="M0,1513.34h2160" sodipodi:nodetypes="cc"/>
    </g>
    <g id="layer1" inkscape:groupmode="layer" inkscape:label="Verticals">
      <path id="path2" class="st0" d="M73.38,0v1584"/>
      <path id="path2-5" class="st0" d="M145.38,0v1584"/>
      <path id="path2-0" class="st0" d="M217.38,0v1584"/>
      <path id="path2-5-9" class="st0" d="M289.39,0v1584"/>
      <path id="path2-6" class="st0" d="M361.39,0v1584"/>
      <path id="path2-5-2" class="st0" d="M433.39,0v1584"/>
      <path id="path2-0-6" class="st0" d="M505.39,0v1584"/>
      <path id="path2-5-9-1" class="st0" d="M577.4,0v1584"/>
      <path id="path2-2" class="st0" d="M649.4,0v1584"/>
      <path id="path2-5-0" class="st0" d="M721.4,0v1584"/>
      <path id="path2-0-2" class="st0" d="M793.41,0v1584"/>
      <path id="path2-5-9-3" class="st0" d="M865.41,0v1584"/>
      <path id="path2-6-7" class="st0" d="M937.41,0v1584"/>
      <path id="path2-5-2-5" class="st0" d="M1009.41,0v1584"/>
      <path id="path2-0-6-9" class="st0" d="M1081.42,0v1584"/>
      <path id="path2-5-9-1-2" class="st0" d="M1153.42,0v1584"/>
      <path id="path2-7" class="st0" d="M1225.42,0v1584"/>
      <path id="path2-5-3" class="st0" d="M1297.43,0v1584"/>
      <path id="path2-0-61" class="st0" d="M1369.43,0v1584"/>
      <path id="path2-5-9-2" class="st0" d="M1441.43,0v1584"/>
      <path id="path2-6-9" class="st0" d="M1513.43,0v1584"/>
      <path id="path2-5-2-3" class="st0" d="M1585.44,0v1584"/>
      <path id="path2-0-6-1" class="st0" d="M1657.44,0v1584"/>
      <path id="path2-5-9-1-9" class="st0" d="M1729.44,0v1584"/>
      <path id="path2-4" class="st0" d="M1801.45,0v1584"/>
      <path id="path2-5-5" class="st0" d="M1873.45,0v1584"/>
      <path id="path2-0-0" class="st0" d="M1945.45,0v1584"/>
      <path id="path2-5-9-36" class="st0" d="M2017.45,0v1584"/>
      <path id="path2-6-1" class="st0" d="M2089.46,0v1584"/>
    </g>
  </g>
</svg>