<?xml version="1.0" encoding="UTF-8"?>
<svg xmlns="http://www.w3.org/2000/svg" version="1.1" viewBox="0 0 1421.86 1850.46">
  <!-- Generator: Adobe Illustrator 30.0.0, SVG Export Plug-In . SVG Version: 2.1.1 Build 123)  -->
  <defs>
    <style>
      .st0 {
        fill: #fff;
      }

      .st1 {
        opacity: .3;
      }

      .st2 {
        opacity: .98;
      }

      .st3 {
        fill: blue;
      }

      .st4 {
        fill: red;
      }

      .st5 {
        stroke-width: 2.67px;
      }

      .st5, .st6, .st7 {
        stroke: #000;
        stroke-miterlimit: 11.34;
      }

      .st8 {
        opacity: .15;
      }

      .st9 {
        fill: #f80;
      }

      .st10 {
        fill: #eff26b;
      }

      .st6 {
        stroke-width: 5px;
      }

      .st7 {
        stroke-width: 2.76px;
      }

      .st11 {
        fill: gray;
      }

      .st12 {
        opacity: .5;
      }
    </style>
  </defs>
  <g id="Layer_2">
    <g class="st2">
      <rect class="st0" x="2.5" y="2.5" width="1416.86" height="1845.46"/>
      <path class="st9" d="M1416.86,5v1840.46H5V5h1411.86M1421.86,0H0v1850.46h1421.86V0h0Z"/>
    </g>
  </g>
  <g id="Layer_1">
    <g id="layer42" class="st1">
      <rect id="rect12" class="st4" x="1152.85" y="38.99" width="172.52" height="172.52"/>
    </g>
    <g id="svg1">
      <g id="layer3" class="st12">
        <g id="layer2">
          <path id="path2-1-9-0-0" class="st6" d="M1152.85,38.99h172.52"/>
          <path id="path2-1-9-5-4-2" class="st5" d="M1152.85,96.5h172.52"/>
          <path id="path2-1-4-9-6" class="st5" d="M1152.85,154.01h172.52"/>
          <path id="path2-1-7-3-2-6" class="st6" d="M1152.85,211.52h172.52"/>
        </g>
        <g id="layer1">
          <path id="path2-4" class="st6" d="M1152.85,38.99v172.52"/>
          <path id="path2-5-5" class="st7" d="M1210.36,38.99v172.52"/>
          <path id="path2-0-0" class="st7" d="M1267.87,38.99v172.52"/>
          <path id="path2-5-9-36" class="st6" d="M1325.37,38.99v172.52"/>
        </g>
      </g>
    </g>
    <g id="layer421" data-name="layer42" class="st8">
      <rect id="rect121" data-name="rect12" class="st4" x="1152.85" y="227.78" width="172.52" height="172.52"/>
    </g>
    <g id="svg11" data-name="svg1">
      <g id="layer31" data-name="layer3" class="st12">
        <g id="layer21" data-name="layer2">
          <path id="path2-1-9-0-01" data-name="path2-1-9-0-0" class="st6" d="M1152.85,227.78h172.52"/>
          <path id="path2-1-9-5-4-21" data-name="path2-1-9-5-4-2" class="st5" d="M1152.85,285.29h172.52"/>
          <path id="path2-1-4-9-61" data-name="path2-1-4-9-6" class="st5" d="M1152.85,342.8h172.52"/>
          <path id="path2-1-7-3-2-61" data-name="path2-1-7-3-2-6" class="st6" d="M1152.85,400.3h172.52"/>
        </g>
        <g id="layer11" data-name="layer1">
          <path id="path2-41" data-name="path2-4" class="st6" d="M1152.85,227.78v172.52"/>
          <path id="path2-5-51" data-name="path2-5-5" class="st7" d="M1210.36,227.78v172.52"/>
          <path id="path2-0-01" data-name="path2-0-0" class="st7" d="M1267.87,227.78v172.52"/>
          <path id="path2-5-9-361" data-name="path2-5-9-36" class="st6" d="M1325.37,227.78v172.52"/>
        </g>
      </g>
    </g>
    <g id="layer41" class="st1">
      <rect id="rect11" class="st3" x="1152.85" y="416.57" width="172.52" height="172.52"/>
    </g>
    <g id="svg12" data-name="svg1">
      <g id="layer32" data-name="layer3" class="st12">
        <g id="layer22" data-name="layer2">
          <path id="path2-1-9-0-02" data-name="path2-1-9-0-0" class="st6" d="M1152.85,416.57h172.52"/>
          <path id="path2-1-9-5-4-22" data-name="path2-1-9-5-4-2" class="st5" d="M1152.85,474.07h172.52"/>
          <path id="path2-1-4-9-62" data-name="path2-1-4-9-6" class="st5" d="M1152.85,531.58h172.52"/>
          <path id="path2-1-7-3-2-62" data-name="path2-1-7-3-2-6" class="st6" d="M1152.85,589.09h172.52"/>
        </g>
        <g id="layer12" data-name="layer1">
          <path id="path2-42" data-name="path2-4" class="st6" d="M1152.85,416.57v172.52"/>
          <path id="path2-5-52" data-name="path2-5-5" class="st7" d="M1210.36,416.57v172.52"/>
          <path id="path2-0-02" data-name="path2-0-0" class="st7" d="M1267.87,416.57v172.52"/>
          <path id="path2-5-9-362" data-name="path2-5-9-36" class="st6" d="M1325.37,416.57v172.52"/>
        </g>
      </g>
    </g>
    <g id="svg13" data-name="svg1">
      <g id="layer33" data-name="layer3" class="st12">
        <g id="layer23" data-name="layer2">
          <path id="path2-1-9-0-03" data-name="path2-1-9-0-0" class="st6" d="M1152.85,605.35h172.52"/>
          <path id="path2-1-9-5-4-23" data-name="path2-1-9-5-4-2" class="st5" d="M1152.85,662.86h172.52"/>
          <path id="path2-1-4-9-63" data-name="path2-1-4-9-6" class="st5" d="M1152.85,720.37h172.52"/>
          <path id="path2-1-7-3-2-63" data-name="path2-1-7-3-2-6" class="st6" d="M1152.85,777.88h172.52"/>
        </g>
        <g id="layer13" data-name="layer1">
          <path id="path2-43" data-name="path2-4" class="st6" d="M1152.85,605.35v172.52"/>
          <path id="path2-5-53" data-name="path2-5-5" class="st7" d="M1210.36,605.35v172.52"/>
          <path id="path2-0-03" data-name="path2-0-0" class="st7" d="M1267.87,605.35v172.52"/>
          <path id="path2-5-9-363" data-name="path2-5-9-36" class="st6" d="M1325.37,605.35v172.52"/>
        </g>
      </g>
    </g>
    <g id="layer411" data-name="layer41" class="st8">
      <rect id="rect111" data-name="rect11" class="st3" x="1152.85" y="605.35" width="172.52" height="172.52"/>
    </g>
    <g id="layer412" data-name="layer41">
      <rect id="rect112" data-name="rect11" class="st0" x="1152.85" y="794.14" width="172.52" height="172.52"/>
    </g>
    <g id="layer413" data-name="layer41">
      <rect id="rect113" data-name="rect11" class="st10" x="1152.85" y="1171.72" width="172.52" height="172.52"/>
    </g>
    <g id="layer414" data-name="layer41">
      <rect id="rect114" data-name="rect11" class="st11" x="1152.85" y="982.93" width="172.52" height="172.52"/>
    </g>
    <g id="svg14" data-name="svg1">
      <g id="layer34" data-name="layer3" class="st12">
        <g id="layer24" data-name="layer2">
          <path id="path2-1-9-0-04" data-name="path2-1-9-0-0" class="st6" d="M1152.85,794.14h172.52"/>
          <path id="path2-1-9-5-4-24" data-name="path2-1-9-5-4-2" class="st5" d="M1152.85,851.65h172.52"/>
          <path id="path2-1-4-9-64" data-name="path2-1-4-9-6" class="st5" d="M1152.85,909.16h172.52"/>
          <path id="path2-1-7-3-2-64" data-name="path2-1-7-3-2-6" class="st6" d="M1152.85,966.67h172.52"/>
        </g>
        <g id="layer14" data-name="layer1">
          <path id="path2-44" data-name="path2-4" class="st6" d="M1152.85,794.14v172.52"/>
          <path id="path2-5-54" data-name="path2-5-5" class="st7" d="M1210.36,794.14v172.52"/>
          <path id="path2-0-04" data-name="path2-0-0" class="st7" d="M1267.87,794.14v172.52"/>
          <path id="path2-5-9-364" data-name="path2-5-9-36" class="st6" d="M1325.37,794.14v172.52"/>
        </g>
      </g>
    </g>
    <g id="svg15" data-name="svg1">
      <g id="layer35" data-name="layer3" class="st12">
        <g id="layer25" data-name="layer2">
          <path id="path2-1-9-0-05" data-name="path2-1-9-0-0" class="st6" d="M1152.85,982.93h172.52"/>
          <path id="path2-1-9-5-4-25" data-name="path2-1-9-5-4-2" class="st5" d="M1152.85,1040.44h172.52"/>
          <path id="path2-1-4-9-65" data-name="path2-1-4-9-6" class="st5" d="M1152.85,1097.95h172.52"/>
          <path id="path2-1-7-3-2-65" data-name="path2-1-7-3-2-6" class="st6" d="M1152.85,1155.45h172.52"/>
        </g>
        <g id="layer15" data-name="layer1">
          <path id="path2-45" data-name="path2-4" class="st6" d="M1152.85,982.93v172.52"/>
          <path id="path2-5-55" data-name="path2-5-5" class="st7" d="M1210.36,982.93v172.52"/>
          <path id="path2-0-05" data-name="path2-0-0" class="st7" d="M1267.87,982.93v172.52"/>
          <path id="path2-5-9-365" data-name="path2-5-9-36" class="st6" d="M1325.37,982.93v172.52"/>
        </g>
      </g>
    </g>
    <g id="svg16" data-name="svg1">
      <g id="layer36" data-name="layer3" class="st12">
        <g id="layer26" data-name="layer2">
          <path id="path2-1-9-0-06" data-name="path2-1-9-0-0" class="st6" d="M1152.85,1171.72h172.52"/>
          <path id="path2-1-9-5-4-26" data-name="path2-1-9-5-4-2" class="st5" d="M1152.85,1229.22h172.52"/>
          <path id="path2-1-4-9-66" data-name="path2-1-4-9-6" class="st5" d="M1152.85,1286.73h172.52"/>
          <path id="path2-1-7-3-2-66" data-name="path2-1-7-3-2-6" class="st6" d="M1152.85,1344.24h172.52"/>
        </g>
        <g id="layer16" data-name="layer1">
          <path id="path2-46" data-name="path2-4" class="st6" d="M1152.85,1171.72v172.52"/>
          <path id="path2-5-56" data-name="path2-5-5" class="st7" d="M1210.36,1171.72v172.52"/>
          <path id="path2-0-06" data-name="path2-0-0" class="st7" d="M1267.87,1171.72v172.52"/>
          <path id="path2-5-9-366" data-name="path2-5-9-36" class="st6" d="M1325.37,1171.72v172.52"/>
        </g>
      </g>
    </g>
    <g id="Layer_6">
      <g>
        <circle cx="1239.22" cy="1611.07" r="72.24"/>
        <path class="st0" d="M1245.54,1572.09v61.86h18.24v11.52h-49.12v-11.52h18.45v-44.13l-11.01,11.52-6.62-9.89,18.85-19.36h11.21Z"/>
      </g>
    </g>
    <g>
      <circle cx="1159.01" cy="1747.18" r="72.24"/>
      <path class="st0" d="M1175.11,1708.2l8.76,13.15v10.09l-36.89,38.22v.41h36.89v11.52h-49.12v-15.7l37.71-38.73-4.99-7.44h-18.45l-8.36,8.26-6.52-9.48,10.09-10.29h30.88,0Z"/>
    </g>
    <g>
      <circle cx="1319.43" cy="1744.89" r="72.24"/>
      <path class="st0" d="M1344.09,1705.91v11.42l-17.53,18.14h6.93l10.6,15.9v17.73l-9.68,10.19h-39.65v-11.52h34.55l2.55-2.45v-11.72l-6.01-8.66h-15.59v-9.07l17.94-18.45h-33.43v-11.52h49.33,0Z"/>
    </g>
    <g>
      <circle cx="1239.11" cy="1441.53" r="71.03"/>
      <path class="st9" d="M1272.75,1427.48c0-16.66-12.82-30.29-34.18-30.29s-33.11,13.63-33.11,30.29,4.7,14.52,4.7,23.93c0,3.53-3.42,1.82-3.42,9.4,0,8.33,11.64,7.16,15.06,10.57,3.41,3.42,3.09,9.73,3.09,9.73,0,0,.64,2.56,1.82,1.81,0,0,.75,1.82,1.6.75,0,0,.85,1.81,1.71.32,0,0,.86,2.03,2.24.53,0,0,1.39,2.03,3,.43,0,0,1.81,1.71,3.84.43,2.03,1.28,3.84-.43,3.84-.43,1.6,1.6,3-.43,3-.43,1.39,1.5,2.23-.53,2.23-.53.86,1.49,1.71-.32,1.71-.32.86,1.07,1.61-.75,1.61-.75,1.17.75,1.81-1.81,1.81-1.81,0,0-.32-6.3,3.1-9.72,3.42-3.41,15.06-2.24,15.06-10.57,0-7.59-3.41-5.88-3.41-9.4,0-9.4,4.7-7.27,4.7-23.93h-.01,0ZM1222.46,1459.21c-5.74.92-8.34-.69-8.97-4.8-1.64-10.72,8.23-12.45,13.14-11.86,2.35.28,6.41,2.78,6.41,5.88,0,8.33-5.24,9.93-10.58,10.79h0ZM1242.2,1473.09c-1.06,0-2.77-1.39-2.88-3.95-.11,2.56-2.03,3.95-3.09,3.95s-2.67-1.06-2.78-3.63c-.11-2.56,3.31-12.92,5.77-12.92s5.88,10.36,5.77,12.92-1.71,3.63-2.78,3.63h-.01ZM1264.42,1454.41c-.62,4.11-3.23,5.72-8.97,4.8-5.34-.86-10.57-2.46-10.57-10.79,0-3.1,4.06-5.6,6.41-5.88,4.91-.59,14.78,1.14,13.14,11.86h0Z"/>
    </g>
  </g>
  <g id="Layer_3">
    <g>
      <path d="M72.73,97.25l4.56,6.84v9.12l-4.61,4.72h-14.63v16.43h-5.67v-37.1h20.35ZM58.1,114.74l3.39-1.96h8.9l1.22-1.27v-6.41l-1.75-2.6h-11.77v12.24Z"/>
      <path d="M92.76,94.71l4.82,2.81v29.1l1.7,2.49h9.06v5.25h-11.82l-4.61-6.78v-27.61h-7.05v-5.25h7.9Z"/>
      <path d="M137.44,105.04l3.6,5.3v24.01h-5.78v-2.07l-3.39,2.07h-11.4l-4.66-6.94v-2.6l8.43-8.8h11.02v-5.72h-15.16v-5.25h17.33ZM123.08,129h12.08v-7.58h-8.74l-4.72,4.82v.21l1.38,2.54Z"/>
      <path d="M172.63,105.47v31l-9.01,9.38h-15.79v-5.3h13.46l5.67-5.72v-.48h-13.51l-5.62-8.32v-20.56h5.67v19.61l2.76,4.03h10.71v-23.64h5.67Z"/>
      <path d="M199.71,105.42l4.66,6.94-9.17,9.43h-9.96v4.5l1.8,2.7h10.55l2.92-3.02,3.29,4.08-4.13,4.29h-15.37l-4.5-6.73v-17.49l4.56-4.72h15.37ZM185.24,116.92h7.9l4.4-4.61-1.06-1.48h-9.86l-1.38,1.38v4.72Z"/>
      <path d="M214.23,105.52l4.72,2.81,2.7-2.81h11.66l3.34,4.93-4.35,2.97-1.75-2.7h-6.62l-1.91,2.07v16.32h7.47v5.25h-18.5v-5.25h5.35v-15.85l-1.7-2.54h-3.66v-5.19h3.23Z"/>
      <path d="M290.34,96.56v32.54h9.49v5.25h-24.8v-5.25h9.59v-24.54l-6.04,6.25-3.07-4.5,9.54-9.75h5.3Z"/>
      <path d="M339.1,97.25h17.44l7.47,11.13v21.15l-4.61,4.82h-20.3v-37.1ZM344.77,102.5v26.61h12.3l1.27-1.27v-18.44l-4.66-6.89h-8.9Z"/>
      <path d="M373.23,105.52l4.72,2.81,2.7-2.81h11.66l3.34,4.93-4.35,2.97-1.75-2.7h-6.62l-1.91,2.07v16.32h7.47v5.25h-18.5v-5.25h5.35v-15.85l-1.7-2.54h-3.66v-5.19h3.23Z"/>
      <path d="M406.94,105.52h15.64l4.56,6.84v17.17l-4.66,4.82h-15.58l-4.61-6.84v-17.17l4.66-4.82ZM407.89,126.56l1.75,2.54h10.6l1.17-1.27v-14.58l-1.7-2.54h-10.6l-1.22,1.33v14.52Z"/>
      <path d="M454.32,105.52l4.5,6.84v17.17l-4.66,4.82h-11.08l-3.39-1.96v13.41h-5.67v-40.28h5.67v2.01l3.29-2.01h11.34ZM441.44,129.11h10.55l1.17-1.22v-14.52l-1.7-2.6h-10.55l-1.22,1.22v14.58l1.75,2.54Z"/>
      <path d="M490.31,105.52v5.46l-17.49,18.13h17.49v5.25h-24.17v-4.82l17.75-18.44v-.37h-17.75v-5.19h24.17Z"/>
      <path d="M502.34,105.52h15.64l4.56,6.84v17.17l-4.66,4.82h-15.58l-4.61-6.84v-17.17l4.66-4.82ZM503.29,126.56l1.75,2.54h10.6l1.17-1.27v-14.58l-1.7-2.54h-10.6l-1.22,1.33v14.52Z"/>
      <path d="M535.09,105.52v2.01l3.39-2.01h11.18l4.61,6.78v22.05h-5.67v-21.09l-1.7-2.54h-10.65l-1.17,1.33v22.31h-5.67v-28.83h5.67Z"/>
      <path d="M581.31,105.42l4.66,6.94-9.17,9.43h-9.96v4.5l1.8,2.7h10.55l2.92-3.02,3.29,4.08-4.13,4.29h-15.37l-4.5-6.73v-17.49l4.56-4.72h15.37ZM566.84,116.92h7.9l4.4-4.61-1.06-1.48h-9.86l-1.38,1.38v4.72Z"/>
      <path d="M646.23,105.04l3.6,5.3v24.01h-5.78v-2.07l-3.39,2.07h-11.4l-4.66-6.94v-2.6l8.43-8.8h11.02v-5.72h-15.16v-5.25h17.33ZM631.87,129h12.08v-7.58h-8.74l-4.72,4.82v.21l1.38,2.54Z"/>
      <path d="M662.29,105.52v2.01l3.39-2.01h11.18l4.61,6.78v22.05h-5.67v-21.09l-1.7-2.54h-10.65l-1.17,1.33v22.31h-5.67v-28.83h5.67Z"/>
      <path d="M707.76,93.97h5.72v40.39h-5.72v-2.01l-3.29,2.01h-11.18l-4.72-6.89v-17.07l4.72-4.93h11.13l3.34,2.01v-13.52ZM694.3,126.51l1.7,2.54h10.65l1.11-1.17v-14.58l-1.7-2.6h-10.49l-1.27,1.33v14.47Z"/>
      <path d="M750.59,97.25h27.67v5.25h-14.68l3.71,2.97v28.88h-5.67v-27.72l-1.7-4.13h-9.33v-5.25Z"/>
      <path d="M803.9,105.42l4.66,6.94-9.17,9.43h-9.96v4.5l1.8,2.7h10.55l2.92-3.02,3.29,4.08-4.13,4.29h-15.37l-4.5-6.73v-17.49l4.56-4.72h15.37ZM789.43,116.92h7.9l4.4-4.61-1.06-1.48h-9.86l-1.38,1.38v4.72Z"/>
      <path d="M818.42,105.52l4.72,2.81,2.7-2.81h11.66l3.34,4.93-4.35,2.97-1.75-2.7h-6.62l-1.91,2.07v16.32h7.47v5.25h-18.5v-5.25h5.35v-15.85l-1.7-2.54h-3.66v-5.19h3.23Z"/>
      <path d="M850.22,105.52l4.72,2.81,2.7-2.81h11.66l3.34,4.93-4.35,2.97-1.75-2.7h-6.62l-1.91,2.07v16.32h7.47v5.25h-18.5v-5.25h5.35v-15.85l-1.7-2.54h-3.66v-5.19h3.23Z"/>
      <path d="M889.81,104.51l4.56,6.78v17.91h9.65v5.14h-24.8v-5.14h9.65v-17.01l-1.75-2.54h-5.72v-5.14h8.43ZM894.95,98.26v-6.68h-6.68v6.68h6.68Z"/>
      <path d="M916.21,94.71h5.67v10.76h8.59v5.25h-8.59v15.85l1.7,2.49h4.72l3.6-3.55,2.97,4.35-4.19,4.5h-9.91l-4.56-6.73v-16.91h-4.24v-5.25h4.24v-10.76Z"/>
      <path d="M947.53,105.52h15.63l4.56,6.84v17.17l-4.66,4.82h-15.58l-4.61-6.84v-17.17l4.66-4.82ZM948.48,126.56l1.75,2.54h10.6l1.17-1.27v-14.58l-1.7-2.54h-10.6l-1.22,1.33v14.52Z"/>
      <path d="M977.42,105.52l4.72,2.81,2.7-2.81h11.66l3.34,4.93-4.35,2.97-1.75-2.7h-6.62l-1.91,2.07v16.32h7.47v5.25h-18.5v-5.25h5.35v-15.85l-1.7-2.54h-3.66v-5.19h3.23Z"/>
      <path d="M1031.22,105.47v31l-9.01,9.38h-15.79v-5.3h13.46l5.67-5.72v-.48h-13.51l-5.62-8.32v-20.56h5.67v19.61l2.76,4.03h10.71v-23.64h5.67Z"/>
    </g>
    <g>
      <path d="M72.73,286.04l4.56,6.84v9.12l-4.61,4.72h-14.63v16.43h-5.67v-37.1h20.35ZM58.1,303.53l3.39-1.96h8.9l1.22-1.27v-6.41l-1.75-2.6h-11.77v12.24Z"/>
      <path d="M92.76,283.5l4.82,2.81v29.1l1.7,2.49h9.06v5.25h-11.82l-4.61-6.78v-27.61h-7.05v-5.25h7.9Z"/>
      <path d="M137.44,293.83l3.6,5.3v24.01h-5.78v-2.07l-3.39,2.07h-11.4l-4.66-6.94v-2.6l8.43-8.8h11.02v-5.72h-15.16v-5.25h17.33ZM123.08,317.79h12.08v-7.58h-8.74l-4.72,4.82v.21l1.38,2.54Z"/>
      <path d="M172.63,294.26v31l-9.01,9.38h-15.79v-5.3h13.46l5.67-5.72v-.48h-13.51l-5.62-8.32v-20.56h5.67v19.61l2.76,4.03h10.71v-23.64h5.67Z"/>
      <path d="M199.71,294.2l4.66,6.94-9.17,9.43h-9.96v4.5l1.8,2.7h10.55l2.92-3.02,3.29,4.08-4.13,4.29h-15.37l-4.5-6.73v-17.49l4.56-4.72h15.37ZM185.24,305.7h7.9l4.4-4.61-1.06-1.48h-9.86l-1.38,1.38v4.72Z"/>
      <path d="M214.23,294.31l4.72,2.81,2.7-2.81h11.66l3.34,4.93-4.35,2.97-1.75-2.7h-6.62l-1.91,2.07v16.32h7.47v5.25h-18.5v-5.25h5.35v-15.85l-1.7-2.54h-3.66v-5.19h3.23Z"/>
      <path d="M290.34,285.35v32.54h9.49v5.25h-24.8v-5.25h9.59v-24.54l-6.04,6.25-3.07-4.5,9.54-9.75h5.3Z"/>
      <path d="M337.19,286.04h27.67v5.25h-14.68l3.71,2.97v28.88h-5.67v-27.72l-1.7-4.13h-9.33v-5.25Z"/>
      <path d="M390.51,294.2l4.66,6.94-9.17,9.43h-9.96v4.5l1.8,2.7h10.55l2.92-3.02,3.29,4.08-4.13,4.29h-15.37l-4.5-6.73v-17.49l4.56-4.72h15.37ZM376.04,305.7h7.9l4.4-4.61-1.06-1.48h-9.86l-1.38,1.38v4.72Z"/>
      <path d="M405.03,294.31l4.72,2.81,2.7-2.81h11.66l3.34,4.93-4.35,2.97-1.75-2.7h-6.62l-1.91,2.07v16.32h7.47v5.25h-18.5v-5.25h5.35v-15.85l-1.7-2.54h-3.66v-5.19h3.23Z"/>
      <path d="M436.83,294.31l4.72,2.81,2.7-2.81h11.66l3.34,4.93-4.35,2.97-1.75-2.7h-6.62l-1.91,2.07v16.32h7.47v5.25h-18.5v-5.25h5.35v-15.85l-1.7-2.54h-3.66v-5.19h3.23Z"/>
      <path d="M476.42,293.3l4.56,6.78v17.92h9.65v5.14h-24.8v-5.14h9.65v-17.01l-1.75-2.54h-5.72v-5.14h8.43ZM481.56,287.05v-6.68h-6.68v6.68h6.68Z"/>
      <path d="M502.81,283.5h5.67v10.76h8.59v5.25h-8.59v15.85l1.7,2.49h4.72l3.6-3.55,2.97,4.35-4.19,4.5h-9.91l-4.56-6.73v-16.91h-4.24v-5.25h4.24v-10.76Z"/>
      <path d="M534.14,294.31h15.64l4.56,6.84v17.17l-4.66,4.82h-15.58l-4.61-6.84v-17.17l4.66-4.82ZM535.09,315.35l1.75,2.54h10.6l1.17-1.27v-14.58l-1.7-2.54h-10.6l-1.22,1.33v14.52Z"/>
      <path d="M564.03,294.31l4.72,2.81,2.7-2.81h11.66l3.34,4.93-4.35,2.97-1.75-2.7h-6.62l-1.91,2.07v16.32h7.47v5.25h-18.5v-5.25h5.35v-15.85l-1.7-2.54h-3.66v-5.19h3.23Z"/>
      <path d="M617.82,294.26v31l-9.01,9.38h-15.79v-5.3h13.46l5.67-5.72v-.48h-13.51l-5.62-8.32v-20.56h5.67v19.61l2.76,4.03h10.71v-23.64h5.67Z"/>
    </g>
    <g>
      <path d="M72.73,474.83l4.56,6.84v9.12l-4.61,4.72h-14.63v16.43h-5.67v-37.1h20.35ZM58.1,492.32l3.39-1.96h8.9l1.22-1.27v-6.41l-1.75-2.6h-11.77v12.24Z"/>
      <path d="M92.76,472.29l4.82,2.81v29.1l1.7,2.49h9.06v5.25h-11.82l-4.61-6.78v-27.61h-7.05v-5.25h7.9Z"/>
      <path d="M137.44,482.62l3.6,5.3v24.01h-5.78v-2.07l-3.39,2.07h-11.4l-4.66-6.94v-2.6l8.43-8.8h11.02v-5.72h-15.16v-5.25h17.33ZM123.08,506.58h12.08v-7.58h-8.74l-4.72,4.82v.21l1.38,2.54Z"/>
      <path d="M172.63,483.04v31l-9.01,9.38h-15.79v-5.3h13.46l5.67-5.72v-.48h-13.51l-5.62-8.32v-20.56h5.67v19.61l2.76,4.03h10.71v-23.64h5.67Z"/>
      <path d="M199.71,482.99l4.66,6.94-9.17,9.43h-9.96v4.5l1.8,2.7h10.55l2.92-3.02,3.29,4.08-4.13,4.29h-15.37l-4.5-6.73v-17.49l4.56-4.72h15.37ZM185.24,494.49h7.9l4.4-4.61-1.06-1.48h-9.86l-1.38,1.38v4.72Z"/>
      <path d="M214.23,483.1l4.72,2.81,2.7-2.81h11.66l3.34,4.93-4.35,2.97-1.75-2.7h-6.62l-1.91,2.07v16.32h7.47v5.25h-18.5v-5.25h5.35v-15.85l-1.7-2.54h-3.66v-5.19h3.23Z"/>
      <path d="M295.59,474.14l4.4,6.57v5.35l-19.24,19.88v.74h19.24v5.25h-24.91v-7.68l20.03-20.56-2.86-4.29h-10.23l-4.13,4.13-2.97-4.35,4.93-5.04h15.74Z"/>
      <path d="M339.1,474.83h17.44l7.47,11.13v21.15l-4.61,4.82h-20.3v-37.1ZM344.77,480.08v26.61h12.3l1.27-1.27v-18.44l-4.66-6.89h-8.9Z"/>
      <path d="M373.23,483.1l4.72,2.81,2.7-2.81h11.66l3.34,4.93-4.35,2.97-1.75-2.7h-6.62l-1.91,2.07v16.32h7.47v5.25h-18.5v-5.25h5.35v-15.85l-1.7-2.54h-3.66v-5.19h3.23Z"/>
      <path d="M406.94,483.1h15.64l4.56,6.84v17.17l-4.66,4.82h-15.58l-4.61-6.84v-17.17l4.66-4.82ZM407.89,504.14l1.75,2.54h10.6l1.17-1.27v-14.58l-1.7-2.54h-10.6l-1.22,1.33v14.52Z"/>
      <path d="M454.32,483.1l4.5,6.84v17.17l-4.66,4.82h-11.08l-3.39-1.96v13.41h-5.67v-40.28h5.67v2.01l3.29-2.01h11.34ZM441.44,506.68h10.55l1.17-1.22v-14.52l-1.7-2.6h-10.55l-1.22,1.22v14.58l1.75,2.54Z"/>
      <path d="M490.31,483.1v5.46l-17.49,18.13h17.49v5.25h-24.17v-4.82l17.75-18.44v-.37h-17.75v-5.19h24.17Z"/>
      <path d="M502.34,483.1h15.64l4.56,6.84v17.17l-4.66,4.82h-15.58l-4.61-6.84v-17.17l4.66-4.82ZM503.29,504.14l1.75,2.54h10.6l1.17-1.27v-14.58l-1.7-2.54h-10.6l-1.22,1.33v14.52Z"/>
      <path d="M535.09,483.1v2.01l3.39-2.01h11.18l4.61,6.78v22.05h-5.67v-21.09l-1.7-2.54h-10.65l-1.17,1.33v22.31h-5.67v-28.83h5.67Z"/>
      <path d="M581.31,482.99l4.66,6.94-9.17,9.43h-9.96v4.5l1.8,2.7h10.55l2.92-3.02,3.29,4.08-4.13,4.29h-15.37l-4.5-6.73v-17.49l4.56-4.72h15.37ZM566.84,494.49h7.9l4.4-4.61-1.06-1.48h-9.86l-1.38,1.38v4.72Z"/>
      <path d="M646.23,482.62l3.6,5.3v24.01h-5.78v-2.07l-3.39,2.07h-11.4l-4.66-6.94v-2.6l8.43-8.8h11.02v-5.72h-15.16v-5.25h17.33ZM631.87,506.58h12.08v-7.58h-8.74l-4.72,4.82v.21l1.38,2.54Z"/>
      <path d="M662.29,483.1v2.01l3.39-2.01h11.18l4.61,6.78v22.05h-5.67v-21.09l-1.7-2.54h-10.65l-1.17,1.33v22.31h-5.67v-28.83h5.67Z"/>
      <path d="M707.76,471.54h5.72v40.39h-5.72v-2.01l-3.29,2.01h-11.18l-4.72-6.89v-17.07l4.72-4.93h11.13l3.34,2.01v-13.51ZM694.3,504.09l1.7,2.54h10.65l1.11-1.17v-14.58l-1.7-2.6h-10.49l-1.27,1.33v14.47Z"/>
      <path d="M750.59,474.83h27.67v5.25h-14.68l3.71,2.97v28.88h-5.67v-27.72l-1.7-4.13h-9.33v-5.25Z"/>
      <path d="M803.9,482.99l4.66,6.94-9.17,9.43h-9.96v4.5l1.8,2.7h10.55l2.92-3.02,3.29,4.08-4.13,4.29h-15.37l-4.5-6.73v-17.49l4.56-4.72h15.37ZM789.43,494.49h7.9l4.4-4.61-1.06-1.48h-9.86l-1.38,1.38v4.72Z"/>
      <path d="M818.42,483.1l4.72,2.81,2.7-2.81h11.66l3.34,4.93-4.35,2.97-1.75-2.7h-6.62l-1.91,2.07v16.32h7.47v5.25h-18.5v-5.25h5.35v-15.85l-1.7-2.54h-3.66v-5.19h3.23Z"/>
      <path d="M850.22,483.1l4.72,2.81,2.7-2.81h11.66l3.34,4.93-4.35,2.97-1.75-2.7h-6.62l-1.91,2.07v16.32h7.47v5.25h-18.5v-5.25h5.35v-15.85l-1.7-2.54h-3.66v-5.19h3.23Z"/>
      <path d="M889.81,482.09l4.56,6.78v17.91h9.65v5.14h-24.8v-5.14h9.65v-17.01l-1.75-2.54h-5.72v-5.14h8.43ZM894.95,475.84v-6.68h-6.68v6.68h6.68Z"/>
      <path d="M916.21,472.29h5.67v10.76h8.59v5.25h-8.59v15.85l1.7,2.49h4.72l3.6-3.55,2.97,4.35-4.19,4.5h-9.91l-4.56-6.73v-16.91h-4.24v-5.25h4.24v-10.76Z"/>
      <path d="M947.53,483.1h15.63l4.56,6.84v17.17l-4.66,4.82h-15.58l-4.61-6.84v-17.17l4.66-4.82ZM948.48,504.14l1.75,2.54h10.6l1.17-1.27v-14.58l-1.7-2.54h-10.6l-1.22,1.33v14.52Z"/>
      <path d="M977.42,483.1l4.72,2.81,2.7-2.81h11.66l3.34,4.93-4.35,2.97-1.75-2.7h-6.62l-1.91,2.07v16.32h7.47v5.25h-18.5v-5.25h5.35v-15.85l-1.7-2.54h-3.66v-5.19h3.23Z"/>
      <path d="M1031.22,483.04v31l-9.01,9.38h-15.79v-5.3h13.46l5.67-5.72v-.48h-13.51l-5.62-8.32v-20.56h5.67v19.61l2.76,4.03h10.71v-23.64h5.67Z"/>
    </g>
    <g>
      <path d="M72.73,663.62l4.56,6.84v9.12l-4.61,4.72h-14.63v16.43h-5.67v-37.1h20.35ZM58.1,681.11l3.39-1.96h8.9l1.22-1.27v-6.41l-1.75-2.6h-11.77v12.24Z"/>
      <path d="M92.76,661.07l4.82,2.81v29.1l1.7,2.49h9.06v5.25h-11.82l-4.61-6.78v-27.61h-7.05v-5.25h7.9Z"/>
      <path d="M137.44,671.41l3.6,5.3v24.01h-5.78v-2.07l-3.39,2.07h-11.4l-4.66-6.94v-2.6l8.43-8.8h11.02v-5.72h-15.16v-5.25h17.33ZM123.08,695.36h12.08v-7.58h-8.74l-4.72,4.82v.21l1.38,2.54Z"/>
      <path d="M172.63,671.83v31l-9.01,9.38h-15.79v-5.3h13.46l5.67-5.72v-.48h-13.51l-5.62-8.32v-20.56h5.67v19.61l2.76,4.03h10.71v-23.64h5.67Z"/>
      <path d="M199.71,671.78l4.66,6.94-9.17,9.43h-9.96v4.5l1.8,2.7h10.55l2.92-3.02,3.29,4.08-4.13,4.29h-15.37l-4.5-6.73v-17.49l4.56-4.72h15.37ZM185.24,683.28h7.9l4.4-4.61-1.06-1.48h-9.86l-1.38,1.38v4.72Z"/>
      <path d="M214.23,671.88l4.72,2.81,2.7-2.81h11.66l3.34,4.93-4.35,2.97-1.75-2.7h-6.62l-1.91,2.07v16.32h7.47v5.25h-18.5v-5.25h5.35v-15.85l-1.7-2.54h-3.66v-5.19h3.23Z"/>
      <path d="M290.34,662.93v32.54h9.49v5.25h-24.8v-5.25h9.59v-24.54l-6.04,6.25-3.07-4.5,9.54-9.75h5.3Z"/>
      <path d="M337.19,663.62h27.67v5.25h-14.68l3.71,2.97v28.88h-5.67v-27.72l-1.7-4.13h-9.33v-5.25Z"/>
      <path d="M390.51,671.78l4.66,6.94-9.17,9.43h-9.96v4.5l1.8,2.7h10.55l2.92-3.02,3.29,4.08-4.13,4.29h-15.37l-4.5-6.73v-17.49l4.56-4.72h15.37ZM376.04,683.28h7.9l4.4-4.61-1.06-1.48h-9.86l-1.38,1.38v4.72Z"/>
      <path d="M405.03,671.88l4.72,2.81,2.7-2.81h11.66l3.34,4.93-4.35,2.97-1.75-2.7h-6.62l-1.91,2.07v16.32h7.47v5.25h-18.5v-5.25h5.35v-15.85l-1.7-2.54h-3.66v-5.19h3.23Z"/>
      <path d="M436.83,671.88l4.72,2.81,2.7-2.81h11.66l3.34,4.93-4.35,2.97-1.75-2.7h-6.62l-1.91,2.07v16.32h7.47v5.25h-18.5v-5.25h5.35v-15.85l-1.7-2.54h-3.66v-5.19h3.23Z"/>
      <path d="M476.42,670.88l4.56,6.78v17.91h9.65v5.14h-24.8v-5.14h9.65v-17.01l-1.75-2.54h-5.72v-5.14h8.43ZM481.56,664.62v-6.68h-6.68v6.68h6.68Z"/>
      <path d="M502.81,661.07h5.67v10.76h8.59v5.25h-8.59v15.85l1.7,2.49h4.72l3.6-3.55,2.97,4.35-4.19,4.5h-9.91l-4.56-6.73v-16.91h-4.24v-5.25h4.24v-10.76Z"/>
      <path d="M534.14,671.88h15.64l4.56,6.84v17.17l-4.66,4.82h-15.58l-4.61-6.84v-17.17l4.66-4.82ZM535.09,692.93l1.75,2.54h10.6l1.17-1.27v-14.58l-1.7-2.54h-10.6l-1.22,1.33v14.52Z"/>
      <path d="M564.03,671.88l4.72,2.81,2.7-2.81h11.66l3.34,4.93-4.35,2.97-1.75-2.7h-6.62l-1.91,2.07v16.32h7.47v5.25h-18.5v-5.25h5.35v-15.85l-1.7-2.54h-3.66v-5.19h3.23Z"/>
      <path d="M617.82,671.83v31l-9.01,9.38h-15.79v-5.3h13.46l5.67-5.72v-.48h-13.51l-5.62-8.32v-20.56h5.67v19.61l2.76,4.03h10.71v-23.64h5.67Z"/>
    </g>
    <g>
      <path d="M77.28,852.4v37.1h-5.67v-12.51l-12.56-18.6h-.95v31.11h-5.67v-37.1h9.43l9.75,15.05v-15.05h5.67Z"/>
      <path d="M104.31,860.57l4.66,6.94-9.17,9.43h-9.96v4.5l1.8,2.7h10.55l2.92-3.02,3.29,4.08-4.13,4.29h-15.37l-4.5-6.73v-17.49l4.56-4.72h15.37ZM89.84,872.07h7.9l4.4-4.61-1.06-1.48h-9.86l-1.38,1.38v4.72Z"/>
      <path d="M140.83,860.67v28.83h-5.56v-2.01l-3.44,2.01h-11.18l-4.61-6.84v-22h5.67v21.04l1.7,2.49h10.6l1.17-1.22v-22.31h5.67Z"/>
      <path d="M153.02,849.86h5.67v10.76h8.59v5.25h-8.59v15.85l1.7,2.49h4.72l3.6-3.55,2.97,4.35-4.19,4.5h-9.91l-4.56-6.73v-16.91h-4.24v-5.25h4.24v-10.76Z"/>
      <path d="M182.43,860.67l4.72,2.81,2.7-2.81h11.66l3.34,4.93-4.35,2.97-1.75-2.7h-6.62l-1.91,2.07v16.32h7.47v5.25h-18.5v-5.25h5.35v-15.85l-1.7-2.54h-3.66v-5.19h3.23Z"/>
      <path d="M232.84,860.19l3.6,5.3v24.01h-5.78v-2.07l-3.39,2.07h-11.4l-4.66-6.94v-2.6l8.43-8.8h11.02v-5.72h-15.16v-5.25h17.33ZM218.47,884.15h12.08v-7.58h-8.74l-4.72,4.82v.21l1.38,2.54Z"/>
      <path d="M251.76,849.86l4.82,2.81v29.1l1.7,2.49h9.06v5.25h-11.82l-4.61-6.78v-27.61h-7.05v-5.25h7.9Z"/>
      <path d="M305.39,852.4h27.67v5.25h-14.68l3.71,2.97v28.88h-5.67v-27.72l-1.7-4.13h-9.33v-5.25Z"/>
      <path d="M358.71,860.57l4.66,6.94-9.17,9.43h-9.96v4.5l1.8,2.7h10.55l2.92-3.02,3.29,4.08-4.13,4.29h-15.37l-4.5-6.73v-17.49l4.56-4.72h15.37ZM344.24,872.07h7.9l4.4-4.61-1.06-1.48h-9.86l-1.38,1.38v4.72Z"/>
      <path d="M373.23,860.67l4.72,2.81,2.7-2.81h11.66l3.34,4.93-4.35,2.97-1.75-2.7h-6.62l-1.91,2.07v16.32h7.47v5.25h-18.5v-5.25h5.35v-15.85l-1.7-2.54h-3.66v-5.19h3.23Z"/>
      <path d="M405.03,860.67l4.72,2.81,2.7-2.81h11.66l3.34,4.93-4.35,2.97-1.75-2.7h-6.62l-1.91,2.07v16.32h7.47v5.25h-18.5v-5.25h5.35v-15.85l-1.7-2.54h-3.66v-5.19h3.23Z"/>
      <path d="M444.62,859.67l4.56,6.78v17.92h9.65v5.14h-24.8v-5.14h9.65v-17.01l-1.75-2.54h-5.72v-5.14h8.43ZM449.76,853.41v-6.68h-6.68v6.68h6.68Z"/>
      <path d="M471.01,849.86h5.67v10.76h8.59v5.25h-8.59v15.85l1.7,2.49h4.72l3.6-3.55,2.97,4.35-4.19,4.5h-9.91l-4.56-6.73v-16.91h-4.24v-5.25h4.24v-10.76Z"/>
      <path d="M502.34,860.67h15.64l4.56,6.84v17.17l-4.66,4.82h-15.58l-4.61-6.84v-17.17l4.66-4.82ZM503.29,881.71l1.75,2.54h10.6l1.17-1.27v-14.58l-1.7-2.54h-10.6l-1.22,1.33v14.52Z"/>
      <path d="M532.23,860.67l4.72,2.81,2.7-2.81h11.66l3.34,4.93-4.35,2.97-1.75-2.7h-6.62l-1.91,2.07v16.32h7.47v5.25h-18.5v-5.25h5.35v-15.85l-1.7-2.54h-3.66v-5.19h3.23Z"/>
      <path d="M586.02,860.62v31l-9.01,9.38h-15.79v-5.3h13.46l5.67-5.72v-.48h-13.51l-5.62-8.32v-20.56h5.67v19.61l2.76,4.03h10.71v-23.64h5.67Z"/>
    </g>
    <g>
      <path d="M74.1,1041.19l2.86,4.08v5.41l-5.62,5.88h.85l5.25,7.74v11.08l-4.72,2.92h-20.14v-37.1h21.52ZM58.26,1056.56h5.78l7.21-7.53v-2.6h-12.98v10.12ZM58.26,1073.04h13.57v-7.9l-2.38-3.34h-11.18v11.24Z"/>
      <path d="M92.76,1038.65l4.82,2.81v29.1l1.7,2.49h9.06v5.25h-11.82l-4.61-6.78v-27.61h-7.05v-5.25h7.9Z"/>
      <path d="M120.74,1049.46h15.64l4.56,6.84v17.17l-4.66,4.82h-15.58l-4.61-6.84v-17.17l4.66-4.82ZM121.7,1070.5l1.75,2.54h10.6l1.17-1.27v-14.58l-1.7-2.54h-10.6l-1.22,1.33v14.52Z"/>
      <path d="M152.54,1049.35h15.58l4.19,6.25-3.66,3.76-3.18-4.61h-10.44l-1.33,1.38v14.58l1.75,2.65h10.55l3.45-3.5,2.76,4.13-4.13,4.29h-15.53l-4.56-6.73v-17.49l4.56-4.72Z"/>
      <path d="M185.3,1038.65v19.66l10.18-10.55h7.37l-8.9,9.01,10.55,15.64v5.88h-5.67v-4.98l-8.64-12.61-4.88,5.04v12.56h-5.67v-39.64h5.67Z"/>
      <path d="M222.02,1048.45l4.56,6.78v17.92h9.65v5.14h-24.8v-5.14h9.65v-17.01l-1.75-2.54h-5.72v-5.14h8.43ZM227.17,1042.2v-6.68h-6.68v6.68h6.68Z"/>
      <path d="M248.89,1049.46v2.01l3.39-2.01h11.18l4.61,6.78v22.05h-5.67v-21.09l-1.7-2.54h-10.65l-1.17,1.33v22.31h-5.67v-28.83h5.67Z"/>
      <path d="M283.13,1067.9l-1.48,1.59.9,1.54h13.83l3.55,5.51v5.83l-7.58,7.21h-11.71l-4.77-6.41v-5.83l2.81-2.81-3.82-5.72,2.76-2.65-1.91-1.17v-10.28l5.41-5.62h9.65l3.29,2.01v-2.01h5.72v13.3l-9.01,5.51h-7.63ZM281.38,1062.6h8.96l3.71-2.33v-3.44l-1.7-2.44h-9.06l-1.91,2.07v6.15ZM281.75,1078.61v3.29l1.59,2.39h6.78l3.92-3.87v-3.29l-.53-.74h-9.33l-2.44,2.23Z"/>
      <path d="M337.19,1041.19h27.67v5.25h-14.68l3.71,2.97v28.88h-5.67v-27.72l-1.7-4.13h-9.33v-5.25Z"/>
      <path d="M390.51,1049.35l4.66,6.94-9.17,9.43h-9.96v4.5l1.8,2.7h10.55l2.92-3.02,3.29,4.08-4.13,4.29h-15.37l-4.5-6.73v-17.49l4.56-4.72h15.37ZM376.04,1060.85h7.9l4.4-4.61-1.06-1.48h-9.86l-1.38,1.38v4.72Z"/>
      <path d="M405.03,1049.46l4.72,2.81,2.7-2.81h11.66l3.34,4.93-4.35,2.97-1.75-2.7h-6.62l-1.91,2.07v16.32h7.47v5.25h-18.5v-5.25h5.35v-15.85l-1.7-2.54h-3.66v-5.19h3.23Z"/>
      <path d="M436.83,1049.46l4.72,2.81,2.7-2.81h11.66l3.34,4.93-4.35,2.97-1.75-2.7h-6.62l-1.91,2.07v16.32h7.47v5.25h-18.5v-5.25h5.35v-15.85l-1.7-2.54h-3.66v-5.19h3.23Z"/>
      <path d="M487.23,1048.98l3.6,5.3v24.01h-5.78v-2.07l-3.39,2.07h-11.4l-4.66-6.94v-2.6l8.43-8.8h11.02v-5.72h-15.16v-5.25h17.33ZM472.87,1072.94h12.08v-7.58h-8.74l-4.72,4.82v.21l1.38,2.54Z"/>
      <path d="M508.22,1048.45l4.56,6.78v17.92h9.65v5.14h-24.8v-5.14h9.65v-17.01l-1.75-2.54h-5.72v-5.14h8.43ZM513.36,1042.2v-6.68h-6.68v6.68h6.68Z"/>
      <path d="M535.09,1049.46v2.01l3.39-2.01h11.18l4.61,6.78v22.05h-5.67v-21.09l-1.7-2.54h-10.65l-1.17,1.33v22.31h-5.67v-28.83h5.67Z"/>
    </g>
    <g>
      <path d="M52.37,1229.98h5.67v16.64l3.44-1.96h6.73l3.39,1.96v-16.64h5.67v37.1h-5.67v-14.73l-1.7-2.44h-10.76l-1.11,1.17v16.01h-5.67v-37.1Z"/>
      <path d="M105.64,1237.77l3.6,5.3v24.01h-5.78v-2.07l-3.39,2.07h-11.4l-4.66-6.94v-2.6l8.43-8.8h11.02v-5.72h-15.16v-5.25h17.33ZM91.28,1261.72h12.08v-7.58h-8.74l-4.72,4.82v.21l1.38,2.54Z"/>
      <path d="M140.51,1238.25v5.46l-17.49,18.13h17.49v5.25h-24.17v-4.82l17.75-18.44v-.37h-17.75v-5.19h24.17Z"/>
      <path d="M169.24,1237.77l3.6,5.3v24.01h-5.78v-2.07l-3.39,2.07h-11.4l-4.66-6.94v-2.6l8.43-8.8h11.02v-5.72h-15.16v-5.25h17.33ZM154.87,1261.72h12.08v-7.58h-8.74l-4.72,4.82v.21l1.38,2.54Z"/>
      <path d="M182.43,1238.25l4.72,2.81,2.7-2.81h11.66l3.34,4.93-4.35,2.97-1.75-2.7h-6.62l-1.91,2.07v16.32h7.47v5.25h-18.5v-5.25h5.35v-15.85l-1.7-2.54h-3.66v-5.19h3.23Z"/>
      <path d="M230.77,1226.69h5.72v40.39h-5.72v-2.01l-3.29,2.01h-11.18l-4.72-6.89v-17.07l4.72-4.93h11.13l3.34,2.01v-13.51ZM217.31,1259.23l1.7,2.54h10.65l1.11-1.17v-14.58l-1.7-2.6h-10.49l-1.27,1.33v14.47Z"/>
      <path d="M247.94,1238.25h15.64l4.56,6.84v17.17l-4.66,4.82h-15.58l-4.61-6.84v-17.17l4.66-4.82ZM248.89,1259.29l1.75,2.54h10.6l1.17-1.27v-14.58l-1.7-2.54h-10.6l-1.22,1.33v14.52Z"/>
      <path d="M299.83,1238.25v28.83h-5.56v-2.01l-3.44,2.01h-11.18l-4.61-6.84v-22h5.67v21.04l1.7,2.49h10.6l1.17-1.22v-22.31h5.67Z"/>
      <path d="M311.91,1237.98h15.21l3.34,4.88-3.66,3.76-2.38-3.5h-10.12l-1.17,1.01v2.97l1.64,2.44h12.45l3.98,5.88v7.21l-4.03,4.45h-17.28l-2.65-4.08,3.66-3.71,1.7,2.54h12.19l.69-.85v-4.5l-1.17-1.7h-12.45l-4.4-6.62v-5.83l4.45-4.35Z"/>
      <path d="M368.99,1229.98h27.67v5.25h-14.68l3.71,2.97v28.88h-5.67v-27.72l-1.7-4.13h-9.33v-5.25Z"/>
      <path d="M422.31,1238.14l4.66,6.94-9.17,9.43h-9.96v4.5l1.8,2.7h10.55l2.92-3.02,3.29,4.08-4.13,4.29h-15.37l-4.5-6.73v-17.49l4.56-4.72h15.37ZM407.84,1249.64h7.9l4.4-4.61-1.06-1.48h-9.86l-1.38,1.38v4.72Z"/>
      <path d="M436.83,1238.25l4.72,2.81,2.7-2.81h11.66l3.34,4.93-4.35,2.97-1.75-2.7h-6.62l-1.91,2.07v16.32h7.47v5.25h-18.5v-5.25h5.35v-15.85l-1.7-2.54h-3.66v-5.19h3.23Z"/>
      <path d="M468.63,1238.25l4.72,2.81,2.7-2.81h11.66l3.34,4.93-4.35,2.97-1.75-2.7h-6.62l-1.91,2.07v16.32h7.47v5.25h-18.5v-5.25h5.35v-15.85l-1.7-2.54h-3.66v-5.19h3.23Z"/>
      <path d="M519.03,1237.77l3.6,5.3v24.01h-5.78v-2.07l-3.39,2.07h-11.4l-4.66-6.94v-2.6l8.43-8.8h11.02v-5.72h-15.16v-5.25h17.33ZM504.67,1261.72h12.08v-7.58h-8.74l-4.72,4.82v.21l1.38,2.54Z"/>
      <path d="M540.02,1237.24l4.56,6.78v17.91h9.65v5.14h-24.8v-5.14h9.65v-17.01l-1.75-2.54h-5.72v-5.14h8.43ZM545.16,1230.99v-6.68h-6.68v6.68h6.68Z"/>
      <path d="M566.89,1238.25v2.01l3.39-2.01h11.18l4.61,6.78v22.05h-5.67v-21.09l-1.7-2.54h-10.65l-1.17,1.33v22.31h-5.67v-28.83h5.67Z"/>
    </g>
    <g>
      <path d="M77.28,1414.43v37.1h-5.67v-12.51l-12.56-18.6h-.95v31.11h-5.67v-37.1h9.43l9.75,15.05v-15.05h5.67Z"/>
      <path d="M104.53,1414.43l4.56,6.84v9.12l-4.61,4.72h-14.63v16.43h-5.67v-37.1h20.35ZM89.9,1431.92l3.39-1.96h8.9l1.22-1.27v-6.41l-1.75-2.6h-11.77v12.24Z"/>
      <path d="M120.69,1414.43h15.69l4.5,6.84v25.39l-4.61,4.88h-15.64l-4.66-6.84v-25.39l4.72-4.88ZM121.7,1443.74l1.7,2.54h10.55l1.22-1.32v-22.74l-1.7-2.54h-10.6l-1.17,1.33v22.74Z"/>
      <path d="M198.44,1414.43l6.04,8.8v5.94l-4.98,5.14,4.98,7.26v9.96h-5.67v-9.06l-5.04-7.26h-5.25l-3.29-2.07v18.39h-5.67v-37.1h18.87ZM185.24,1429.9h11.29l2.28-2.33v-3.29l-3.18-4.61h-10.39v10.23Z"/>
      <path d="M231.51,1422.59l4.66,6.94-9.17,9.43h-9.96v4.5l1.8,2.7h10.55l2.92-3.02,3.29,4.08-4.13,4.29h-15.37l-4.5-6.73v-17.49l4.56-4.72h15.37ZM217.04,1434.09h7.9l4.4-4.61-1.06-1.48h-9.86l-1.38,1.38v4.72Z"/>
      <path d="M253.82,1421.69l4.56,6.78v17.91h9.65v5.14h-24.8v-5.14h9.65v-17.01l-1.75-2.54h-5.72v-5.14h8.43ZM258.96,1415.43v-6.68h-6.68v6.68h6.68Z"/>
      <path d="M280.69,1422.69v2.01l3.39-2.01h11.18l4.61,6.78v22.05h-5.67v-21.09l-1.7-2.54h-10.65l-1.17,1.33v22.31h-5.67v-28.83h5.67Z"/>
      <path d="M328.61,1414.43l3.07,4.45-3.71,3.82-2.07-3.02h-7.26l-1.91,1.96v7.47h9.17v5.19h-9.17v17.22h-5.67v-17.22h-4.24v-5.19h4.24v-9.27l5.25-5.41h12.3Z"/>
      <path d="M343.34,1422.69h15.64l4.56,6.84v17.17l-4.66,4.82h-15.58l-4.61-6.84v-17.17l4.66-4.82ZM344.29,1443.74l1.75,2.54h10.6l1.17-1.27v-14.58l-1.7-2.54h-10.6l-1.22,1.33v14.52Z"/>
      <path d="M373.23,1422.69l4.72,2.81,2.7-2.81h11.66l3.34,4.93-4.35,2.97-1.75-2.7h-6.62l-1.91,2.07v16.32h7.47v5.25h-18.5v-5.25h5.35v-15.85l-1.7-2.54h-3.66v-5.19h3.23Z"/>
      <path d="M406.94,1422.59h15.58l4.19,6.25-3.66,3.76-3.18-4.61h-10.44l-1.33,1.38v14.57l1.75,2.65h10.55l3.45-3.5,2.76,4.13-4.13,4.29h-15.53l-4.56-6.73v-17.49l4.56-4.72Z"/>
      <path d="M454.11,1422.59l4.66,6.94-9.17,9.43h-9.96v4.5l1.8,2.7h10.55l2.92-3.02,3.29,4.08-4.13,4.29h-15.37l-4.5-6.73v-17.49l4.56-4.72h15.37ZM439.64,1434.09h7.9l4.4-4.61-1.06-1.48h-9.86l-1.38,1.38v4.72Z"/>
      <path d="M470.43,1422.69v2.01l3.34-2.01h2.76l2.33,3.39,5.62-3.39h2.65l4.61,6.78v22.05h-5.67v-21.09l-1.7-2.54h-2.07l-1.17,1.33v7.63h-5.67v-6.41l-1.7-2.54h-2.17l-1.17,1.33v22.31h-5.67v-28.83h5.67Z"/>
      <path d="M517.71,1422.59l4.66,6.94-9.17,9.43h-9.96v4.5l1.8,2.7h10.55l2.92-3.02,3.29,4.08-4.13,4.29h-15.37l-4.5-6.73v-17.49l4.56-4.72h15.37ZM503.24,1434.09h7.9l4.4-4.61-1.06-1.48h-9.86l-1.38,1.38v4.72Z"/>
      <path d="M535.09,1422.69v2.01l3.39-2.01h11.18l4.61,6.78v22.05h-5.67v-21.09l-1.7-2.54h-10.65l-1.17,1.33v22.31h-5.67v-28.83h5.67Z"/>
      <path d="M566.41,1411.88h5.67v10.76h8.59v5.25h-8.59v15.85l1.7,2.49h4.72l3.6-3.55,2.97,4.35-4.19,4.5h-9.91l-4.56-6.73v-16.91h-4.24v-5.25h4.24v-10.76Z"/>
      <path d="M645.12,1414.43l4.56,6.84v9.12l-4.61,4.72h-14.63v16.43h-5.67v-37.1h20.35ZM630.49,1431.92l3.39-1.96h8.9l1.22-1.27v-6.41l-1.75-2.6h-11.77v12.24Z"/>
      <path d="M661.33,1422.69h15.64l4.56,6.84v17.17l-4.66,4.82h-15.58l-4.61-6.84v-17.17l4.66-4.82ZM662.29,1443.74l1.75,2.54h10.6l1.17-1.27v-14.58l-1.7-2.54h-10.6l-1.22,1.33v14.52Z"/>
      <path d="M699.02,1421.69l4.56,6.78v17.91h9.65v5.14h-24.8v-5.14h9.65v-17.01l-1.75-2.54h-5.72v-5.14h8.43ZM704.16,1415.43v-6.68h-6.68v6.68h6.68Z"/>
      <path d="M725.89,1422.69v2.01l3.39-2.01h11.18l4.61,6.78v22.05h-5.67v-21.09l-1.7-2.54h-10.65l-1.17,1.33v22.31h-5.67v-28.83h5.67Z"/>
      <path d="M757.21,1411.88h5.67v10.76h8.59v5.25h-8.59v15.85l1.7,2.49h4.72l3.6-3.55,2.97,4.35-4.19,4.5h-9.91l-4.56-6.73v-16.91h-4.24v-5.25h4.24v-10.76Z"/>
    </g>
    <g>
      <path d="M57.09,1646.21h15.69l4.5,6.84v25.39l-4.61,4.88h-15.64l-4.66-6.84v-25.39l4.72-4.88ZM58.1,1675.52l1.7,2.54h10.55l1.22-1.33v-22.74l-1.7-2.54h-10.6l-1.17,1.33v22.74Z"/>
      <path d="M89.9,1642.97v13.46l3.29-2.01h11.29l4.66,6.94v17.01l-4.72,4.93h-11.13l-3.39-2.01v2.01h-5.72v-40.33h5.72ZM89.9,1678.01h12.35l1.17-1.27v-14.47l-1.75-2.6h-10.49l-1.27,1.33v17.01Z"/>
      <path d="M124.56,1653.79h12.67v26.02l-8.96,9.33h-7.63v-5.14h5.46l5.56-5.83v-19.19h-7.1v-5.19ZM127.9,1646.9v-6.68h6.68v6.68h-6.68Z"/>
      <path d="M167.91,1654.37l4.66,6.94-9.17,9.43h-9.96v4.5l1.8,2.7h10.55l2.92-3.02,3.29,4.08-4.13,4.29h-15.37l-4.5-6.73v-17.49l4.56-4.72h15.37ZM153.44,1665.87h7.9l4.4-4.61-1.06-1.48h-9.86l-1.38,1.38v4.72Z"/>
      <path d="M184.34,1654.37h15.58l4.19,6.25-3.66,3.76-3.18-4.61h-10.44l-1.33,1.38v14.58l1.75,2.65h10.55l3.45-3.5,2.76,4.13-4.13,4.29h-15.53l-4.56-6.73v-17.49l4.56-4.72Z"/>
      <path d="M216.62,1643.66h5.67v10.76h8.59v5.25h-8.59v15.85l1.7,2.49h4.72l3.6-3.55,2.97,4.35-4.19,4.5h-9.91l-4.56-6.73v-16.91h-4.24v-5.25h4.24v-10.76Z"/>
      <path d="M253.82,1653.47l4.56,6.78v17.92h9.65v5.14h-24.8v-5.14h9.65v-17.01l-1.75-2.54h-5.72v-5.14h8.43ZM258.96,1647.22v-6.68h-6.68v6.68h6.68Z"/>
      <path d="M299.88,1654.42v16.48l-11.98,12.4h-4.35l-8.53-12.67v-16.22h5.67v15.21l5.41,8.06,8.11-8.43v-14.84h5.67Z"/>
      <path d="M326.91,1654.37l4.66,6.94-9.17,9.43h-9.96v4.5l1.8,2.7h10.55l2.92-3.02,3.29,4.08-4.13,4.29h-15.37l-4.5-6.73v-17.49l4.56-4.72h15.37ZM312.44,1665.87h7.9l4.4-4.61-1.06-1.48h-9.86l-1.38,1.38v4.72Z"/>
      <path d="M376.09,1646.21v.9l5.56,8.27,7.95-9.17h5.67v37.1h-5.67v-29.47l-4.56,5.09v3.87h-4.61v-.64l-4.35-6.47v27.61h-5.67v-37.1h5.67Z"/>
      <path d="M423.63,1654l3.6,5.3v24.01h-5.78v-2.07l-3.39,2.07h-11.4l-4.66-6.94v-2.6l8.43-8.8h11.02v-5.72h-15.16v-5.25h17.33ZM409.27,1677.95h12.08v-7.58h-8.74l-4.72,4.82v.21l1.38,2.54Z"/>
      <path d="M436.83,1654.48l4.72,2.81,2.7-2.81h11.66l3.34,4.93-4.35,2.97-1.75-2.7h-6.62l-1.91,2.07v16.32h7.47v5.25h-18.5v-5.25h5.35v-15.85l-1.7-2.54h-3.66v-5.19h3.23Z"/>
      <path d="M471.49,1643.66v19.66l10.18-10.55h7.37l-8.9,9.01,10.55,15.64v5.88h-5.67v-4.98l-8.64-12.61-4.88,5.04v12.56h-5.67v-39.64h5.67Z"/>
      <path d="M517.71,1654.37l4.66,6.94-9.17,9.43h-9.96v4.5l1.8,2.7h10.55l2.92-3.02,3.29,4.08-4.13,4.29h-15.37l-4.5-6.73v-17.49l4.56-4.72h15.37ZM503.24,1665.87h7.9l4.4-4.61-1.06-1.48h-9.86l-1.38,1.38v4.72Z"/>
      <path d="M532.23,1654.48l4.72,2.81,2.7-2.81h11.66l3.34,4.93-4.35,2.97-1.75-2.7h-6.62l-1.91,2.07v16.32h7.47v5.25h-18.5v-5.25h5.35v-15.85l-1.7-2.54h-3.66v-5.19h3.23Z"/>
      <path d="M566.31,1654.21h15.21l3.34,4.88-3.66,3.76-2.38-3.5h-10.12l-1.17,1.01v2.97l1.64,2.44h12.45l3.98,5.88v7.21l-4.03,4.45h-17.28l-2.65-4.08,3.66-3.71,1.7,2.54h12.19l.69-.85v-4.5l-1.17-1.7h-12.45l-4.4-6.62v-5.83l4.45-4.35Z"/>
    </g>
  </g>
</svg>