<?xml version="1.0" encoding="UTF-8"?>
<svg id="Layer_1" xmlns="http://www.w3.org/2000/svg" version="1.1" viewBox="0 0 31.07 31.06">
  <!-- Generator: Adobe Illustrator 29.8.2, SVG Export Plug-In . SVG Version: 2.1.1 Build 3)  -->
  <defs>
    <style>
      .st0 {
        fill: #fff;
      }
    </style>
  </defs>
  <path class="st0" d="M5.85,17.88l.27-1.11.28.07-.28,1.15c.25.1.53.2.82.31l.27-1.12.28.07-.28,1.15c.27.09.54.18.82.26l.27-1.12.28.07-.28,1.13c.3.08.6.16.88.21l.25-1.01.28.07-.24.99c.39.06.73.07,1,0q1.03-2.89,1.23-3.15c.09-.12.19-.23.3-.32h-6.65c-.2.72-.45,1.94-.45,1.94q.38.17.94.4"/>
  <path class="st0" d="M26.84,15.53c.59-2.13.18-4.7-2.35-7.55q-4.18-4.51-8.97-3.81v11.36h11.32Z"/>
  <path class="st0" d="M15.18,18.35s-.05.06-.07.1c-.72.94-2.06,1.13-3,.41-.33-.25-.57-.58-.7-.94-.46.19-.32.64-.32.64.79,1.31.47,1.73.47,1.73-.09.12-.53.35-1.13.62l.16.76-.28.06-.15-.7c-.26.11-.54.23-.82.35l.2.92-.28.06-.19-.87c-.27.11-.55.22-.82.33l.21.99-.28.06-.2-.94c-.3.12-.59.23-.85.33l.23,1.06-.28.06-.22-1.02c-.52.2-.86.33-.86.33,0,.96.71,2.62.71,2.62.81,1.21,1.1.78,1.1.78,1.05-.54,7-2.17,7-2.17.39-.23.55-1.27.55-1.27-.5-1.35-.24-3.72-.17-4.3"/>
  <path class="st0" d="M12.46,16.43c.4-.52,1.15-.63,1.67-.23.52.4.63,1.15.23,1.67-.4.52-1.15.63-1.67.23-.52-.4-.63-1.15-.23-1.67M12.41,18.46c.72.55,1.76.41,2.31-.31.55-.72.41-1.76-.32-2.31-.2-.16-.43-.26-.67-.3-.22-.04-.43-.04-.64,0-.38.07-.74.28-1,.62-.55.72-.41,1.76.32,2.31"/>
  <path class="st0" d="M12.94,17.76c.34.26.82.19,1.08-.15.26-.34.19-.82-.15-1.08-.34-.26-.82-.19-1.08.15-.26.34-.19.82.15,1.08"/>
  <path class="st0" d="M11.81,12.45c-.07-.61-1.38-2.55-2.3-2.9q-1.12,1.52-.97,2.02c.16.5.46,2.39,1.48,2.45,1.02.06.95-.05.95-.05q.9-.91.83-1.53"/>
  <path class="st0" d="M15.69,21.11c-.06-.06-.16-.27-.16-.27v8.93c-7.84-.01-14.22-6.39-14.22-14.24h4.05c.07-.25.14-.43.18-.49.17-.22.98-1.03.98-1.03l.19-2.89q.7-.26,1.21-.46c.51-.21.44-1.2.44-1.2q.41-1.42.99-1.62c.58-.19,1.36-.9,1.36-.9,1.59-1.73,3.24-2.53,4.82-2.76V1.28h.02c7.85,0,14.24,6.39,14.24,14.24h0s-2.95,0-2.95,0c-.99,3.58-4.78,5.93-6.05,6.37-2.02.7-4.68-.34-5.11-.79M26.92,26.07s.07-.08.11-.12c.1-.11.2-.22.3-.33.02-.03.05-.06.07-.09,2.28-2.7,3.67-6.19,3.67-10C31.07,6.96,24.11,0,15.55,0c-1.07,0-2.12.11-3.13.32-.02,0-.03,0-.05.01-.23.05-.46.1-.69.16-.04.01-.08.02-.12.03-.16.04-.32.09-.48.14-.11.03-.21.07-.32.1-.05.01-.09.03-.14.05-2.31.77-4.39,2.07-6.07,3.75C1.74,7.36,0,11.24,0,15.53s1.74,8.17,4.55,10.98c2.81,2.81,6.69,4.55,10.98,4.55,3.62,0,6.95-1.24,9.58-3.31.26-.21.52-.43.77-.65.01,0,.02-.02.03-.03.1-.09.2-.18.3-.28.04-.04.07-.07.11-.11.09-.08.17-.16.26-.25.12-.12.23-.24.35-.36"/>
</svg>