<?xml version="1.0" encoding="UTF-8"?>
<svg id="Layer_1" xmlns="http://www.w3.org/2000/svg" version="1.1" viewBox="0 0 841.89 595.28">
  <!-- Generator: Adobe Illustrator 29.8.2, SVG Export Plug-In . SVG Version: 2.1.1 Build 3)  -->
  <defs>
    <style>
      .st0 {
        fill: #fff;
      }
    </style>
  </defs>
  <path class="st0" d="M422.15,306.88l.75.39.22-.82.75.39,1.04-.46,1.06-.47.43-1.57.7-.31c.19-.04.35-.06.49-.06.85,0,.96.62.96.62l.37,1.44.66-.29-.7-2.85-.98-2.21-.68.3-.18.53-.86.38-.69.31-5,2.22-4.42,1.96-5.3,2.35-5.26,3.45c.76.4,1.66.54,2.56.54,2.5,0,5.09-1.12,5.33-1.23.01,0,.02,0,.02,0l5.6-2.49.22-.82.75.38.13-.48.09-.33.28.14.37.19.1.05.22-.81.75.38.22-.82ZM430.21,308.73l-4.35-1.93-1.68.74-.34.15-.23-.12-.22.81-.75-.38-.22.81-.6-.3.13.48,5.6,2.49s0,0,.02,0c.32.14,5.01,2.18,7.89.69l-5.26-3.45ZM412.43,304.58q.15-.85,1.46-.56l.7.31.43,1.57.11.05,4.42-1.96-4.06-1.81-.69-.31-.85-.38-.18-.53-.68-.3-.98,2.21-.69,2.85.66.29.37-1.44ZM433.13,299.13l.68,1.54,1.32-.26.33-.48-.68-1.54-1.66.74ZM431.26,301.82l-.35-.78.19-.08.35.78,1.05-.47-.35-.78.19-.08.35.78.84-.37-.69-1.56-4.32,1.94.69,1.54.83-.37-.35-.78.19-.08.35.78,1.05-.47ZM406.19,298.39l-.68,1.54.33.48,1.32.26.68-1.54-1.66-.74ZM410.77,302.29l.35-.78.19.08-.35.78.83.37.69-1.54-4.32-1.94-.69,1.56.84.37.35-.78.19.08-.35.78,1.05.47.35-.78.19.08-.35.78,1.05.47ZM425.47,294.56l-.75-.41c-.12-.06-.26-.08-.39-.04l-2.5.8s-.01,0-.02.02c-.27.26-.15.72.21.82l2.47.73c.21.06.44-.03.56-.22l.61-1.01c.14-.24.06-.55-.19-.69M421.4,298.04l-.17-.89s-.03-.08-.05-.11l-.22-.23-.32-.33s-.1-.06-.15-.06-.11.02-.15.06l-.32.33-.22.23s-.05.07-.06.11l-.17.89c-.04.19.18.32.33.21l.45-.34s.08-.04.13-.04.09.01.13.04l.45.34c.15.12.37-.02.33-.21M419.17,294.92s-.02-.01-.02-.02l-2.5-.8c-.13-.04-.27-.03-.39.04l-.76.41c-.25.14-.33.45-.19.69l.61,1.01c.12.19.35.28.56.22l2.47-.73c.36-.11.48-.56.21-.82M427.66,295.53c-.06.14-.19.41-.35.74-.42.91-1.04,1.71-1.06,1.71-.02,0-1.05.3-1.75.14-.15-.04-.29.1-.25.25l.35,1.43s0,.03,0,.05v1.31s-.4.26-1.02.48v-1.34c0-.1-.08-.19-.19-.19s-.19.08-.19.19v1.46c-.33.1-.7.2-1.1.28v-1.46c0-.1-.08-.19-.19-.19s-.19.08-.19.19v1.52c-.34.05-.7.09-1.06.1v-1.33c0-.1-.08-.19-.19-.19s-.19.09-.19.19v1.33c-.36,0-.71-.05-1.06-.1v-1.52c0-.1-.08-.19-.19-.19s-.19.08-.19.19v1.46c-.4-.08-.77-.18-1.1-.28v-1.46c0-.1-.08-.19-.19-.19s-.19.08-.19.19v1.34c-.62-.22-1.02-.43-1.02-.48v-1.31s0-.03,0-.05l.34-1.43c.04-.15-.1-.29-.25-.25-.69.16-1.73-.14-1.74-.14-.02,0-.63-.8-1.06-1.71-.15-.33-.28-.61-.34-.74-.03-.06-.03-.13,0-.18l.92-1.78s-.39-2.53-.39-4.16c0-.92.73-2.19,1.35-2.88.61-.68,1.37-1.25,2.23-1.65.92-.43,1.96-.68,3.06-.68h0s0,0,0,0c1.1,0,2.14.24,3.06.68.86.4,1.62.96,2.23,1.65.61.69,1.35,1.95,1.35,2.88,0,1.63-.41,4.12-.39,4.16l.92,1.78c.03.06.03.12,0,.18M405.49,298.08l.31-.7.45.2c0-.06,0-.12,0-.19,0-7.85,6.39-14.24,14.24-14.24s14.24,6.39,14.24,14.24c0,.06,0,.12,0,.19l.45-.2.31.7.43.98c.06-.55.09-1.11.09-1.67,0-8.56-6.96-15.52-15.52-15.52s-15.53,6.96-15.53,15.52c0,.56.03,1.12.09,1.67l.43-.98ZM424.63,311.02c-1.31.4-2.7.61-4.14.61s-2.83-.22-4.14-.62l-1.7.75c1.8.73,3.77,1.14,5.84,1.14s4.03-.41,5.83-1.14l-1.7-.75ZM435.56,301.11l-.28.05-1.12.22c-.74,2.51-2.15,4.74-4.02,6.47l.38.17.06.03.05.03.67.44c2.05-1.99,3.56-4.55,4.27-7.41M410.84,307.86l-.38.17-.06.03-.05.03-.67.44c-2.05-1.99-3.56-4.55-4.27-7.41l.27.05,1.12.22c.74,2.51,2.15,4.74,4.02,6.47"/>
</svg>