<?xml version="1.0" encoding="UTF-8"?>
<svg id="Layer_1" xmlns="http://www.w3.org/2000/svg" version="1.1" viewBox="0 0 841.89 595.28">
  <!-- Generator: Adobe Illustrator 29.8.2, SVG Export Plug-In . SVG Version: 2.1.1 Build 3)  -->
  <defs>
    <style>
      .st0 {
        fill: #fff;
      }
    </style>
  </defs>
  <path class="st0" d="M413.71,295.38l-.58-.57-.71-.7.02-.59-.57-.56-1.81,1.84-1.77,2.6.55.54.91-1.3q.47-.79,1.67-.02l.58.57-.16,1.74,1.76,1.73.9-.1-.09.9.9-.1-.09.9.9-.1-.09.9.9-.1-.09.9.9-.1-.09.9,4.68,4.6s0,0,.01.02c.27.26,4.21,4.06,7.65,3.65l-3.98-5.43-12.3-12.09ZM405.82,288.09l-1.26,1.28.15.6,1.23.76,1.26-1.28-1.38-1.36ZM408.95,293.71l.64-.65.16.15-.64.65.7.69,1.27-1.29-3.6-3.56-1.28,1.3.7.69.64-.65.15.15-.64.65.88.86.64-.65.15.15-.64.65.88.86ZM424.55,300.23c.37-.4.09-1.57.09-1.57q-.96.64-1.53.74c-.57.1-.61-1.51-.61-1.51-.16-.1-.98.36-.98.36l-.15.45s0-.02,0-.04c-.11.39-.5,1.71-1.09,2.69l5.66,5.56c.33-.33,1.04-1.1,1.29-1.68q-.23-.22-.58-.55l-.52.74-.21-.14.54-.77c-.17-.17-.36-.35-.56-.55l-.48.68-.2-.14.5-.71c-.18-.18-.36-.36-.54-.54l-.44.62-.21-.14.47-.66c-.19-.19-.37-.38-.54-.56l-.36.51-.2-.14.39-.55c-.38-.41-.65-.75-.69-.88q-.11-.44.96-1.22M427.29,292.92c-.65-.02-1.21.98-1.25,2.24-.04,1.26.45,2.3,1.1,2.32.65.02,1.21-.98,1.25-2.24.04-1.26-.45-2.3-1.1-2.32M425.35,291.97c-.3-.01-.56.45-.58,1.03-.02.58.21,1.06.51,1.07.3.01.56-.45.58-1.03.02-.58-.21-1.06-.51-1.07M430.16,299.3c.07.26-.32,2.16-.32,2.16q-.36.01-.89,0l.16-.97-.25-.04-.17,1.01c-.23,0-.49-.02-.75-.03l.16-.98-.25-.04-.16,1c-.24-.02-.49-.04-.74-.06l.16-.98-.25-.04-.16.99c-.27-.03-.53-.08-.76-.13l.15-.89-.25-.04-.14.87c-.33-.09-.61-.2-.8-.33q.08-1.3.1-2.17c-1.1-1.54-3.08-.91-3.8-.61-.54,1.14-.76,2.52-1.16,2.7-.07.03-.19.06-.35.07l-6.63-6.52c-.34-2.42.49-5.14,4.41-7q8.61-3.86,11.34,3.84.38.83.77,1.18c.4.35.24,1.62.24,1.62q-.39.77-.06,1.11c.34.33.8.78.8.78l-.82,2.37q.37.92.43,1.15M420.89,282.22c-5.38,0-10.12,2.75-12.91,6.91l.31.31h0s.62.62.62.62c2.54-3.94,6.96-6.55,11.98-6.55,7.85,0,14.24,6.39,14.24,14.25,0,5.01-2.61,9.42-6.53,11.96l.76,1.03c4.24-2.77,7.05-7.56,7.05-13,0-8.56-6.96-15.52-15.52-15.52M425.56,312.56c-1.47.47-3.04.72-4.66.72-8.56,0-15.52-6.96-15.52-15.52,0-1.93.36-3.78,1-5.49l.52.51h0s.09.09.09.09l.4.39c-.47,1.41-.73,2.93-.73,4.5,0,7.85,6.39,14.24,14.24,14.24,1.09,0,2.15-.13,3.17-.36.45.32.96.63,1.5.92"/>
</svg>