<?xml version="1.0" encoding="UTF-8"?>
<svg xmlns="http://www.w3.org/2000/svg" version="1.1" xmlns:cc="http://creativecommons.org/ns#" xmlns:dc="http://purl.org/dc/elements/1.1/" xmlns:inkscape="http://www.inkscape.org/namespaces/inkscape" xmlns:rdf="http://www.w3.org/1999/02/22-rdf-syntax-ns#" xmlns:sodipodi="http://sodipodi.sourceforge.net/DTD/sodipodi-0.dtd" xmlns:svg="http://www.w3.org/2000/svg" viewBox="0 0 2160 1584">
  <!-- Generator: Adobe Illustrator 30.0.0, SVG Export Plug-In . SVG Version: 2.1.1 Build 123)  -->
  <defs>
    <style>
      .st0 {
        stroke-width: 2.76px;
      }

      .st0, .st1, .st2 {
        stroke: #000;
        stroke-miterlimit: 11.34;
      }

      .st3 {
        fill: #fff;
      }

      .st4, .st5 {
        opacity: .3;
      }

      .st5 {
        display: none;
      }

      .st5, .st6 {
        fill: red;
      }

      .st7 {
        fill: blue;
      }

      .st8 {
        fill: #f80;
      }

      .st1 {
        stroke-width: 5px;
      }

      .st9 {
        opacity: .5;
      }

      .st2 {
        stroke-width: 2.67px;
      }
    </style>
  </defs>
  <g id="WhiteBG">
    <g id="layer4">
      <rect id="rect1" class="st3" x="1.42" y="1.42" width="2157.17" height="1581.17"/>
    </g>
  </g>
  <g id="Layer_4">
    <g id="layer41" data-name="layer4" class="st4">
      <rect id="rect11" data-name="rect1" class="st7" x="972.67" y="396.67" width="214.66" height="2160" transform="translate(2556.67 396.67) rotate(90)"/>
    </g>
    <g id="layer42" data-name="layer4" class="st4">
      <rect id="rect12" data-name="rect1" class="st6" x="864.06" y="-861.19" width="431.92" height="2157.14" transform="translate(1297.39 -862.64) rotate(90)"/>
    </g>
    <polygon class="st5" points="1080 1.42 1.42 792 1.42 1.42 1080 1.42"/>
    <polygon class="st5" points="2160 792 2160 0 1080 1.42 2160 792"/>
  </g>
  <g id="svg1">
    <g id="layer3" class="st9" inkscape:groupmode="layer" inkscape:label="GridLines" sodipodi:insensitive="true">
      <g id="layer2" inkscape:groupmode="layer" inkscape:label="Horizontals">
        <path id="path2-1" class="st2" d="M0,73.34h2160" sodipodi:nodetypes="cc"/>
        <path id="path2-1-7" class="st2" d="M0,145.34h2160" sodipodi:nodetypes="cc"/>
        <path id="path2-1-9" class="st2" d="M0,217.34h2160" sodipodi:nodetypes="cc"/>
        <path id="path2-1-5" class="st2" d="M0,289.34h2160" sodipodi:nodetypes="cc"/>
        <path id="path2-1-7-2" class="st2" d="M0,361.34h2160" sodipodi:nodetypes="cc"/>
        <path id="path2-1-9-5" class="st2" d="M0,433.34h2160" sodipodi:nodetypes="cc"/>
        <path id="path2-1-4" class="st2" d="M0,505.34h2160" sodipodi:nodetypes="cc"/>
        <path id="path2-1-7-3" class="st2" d="M0,577.34h2160" sodipodi:nodetypes="cc"/>
        <path id="path2-1-9-0" class="st2" d="M0,649.34h2160" sodipodi:nodetypes="cc"/>
        <path id="path2-1-8" class="st2" d="M0,721.34h2160" sodipodi:nodetypes="cc"/>
        <path id="path2-1-7-8" class="st2" d="M0,793.34h2160" sodipodi:nodetypes="cc"/>
        <path id="path2-1-9-4" class="st2" d="M0,865.34h2160" sodipodi:nodetypes="cc"/>
        <path id="path2-1-5-3" class="st2" d="M0,937.34h2160" sodipodi:nodetypes="cc"/>
        <path id="path2-1-7-2-1" class="st2" d="M0,1009.34h2160" sodipodi:nodetypes="cc"/>
        <path id="path2-1-9-5-4" class="st2" d="M0,1081.34h2160" sodipodi:nodetypes="cc"/>
        <path id="path2-1-4-9" class="st2" d="M0,1153.34h2160" sodipodi:nodetypes="cc"/>
        <path id="path2-1-7-3-2" class="st2" d="M0,1225.34h2160" sodipodi:nodetypes="cc"/>
        <path id="path2-1-9-0-0" class="st2" d="M0,1297.34h2160" sodipodi:nodetypes="cc"/>
        <path id="path2-1-9-5-4-2" class="st2" d="M0,1369.34h2160" sodipodi:nodetypes="cc"/>
        <path id="path2-1-4-9-6" class="st2" d="M0,1441.34h2160" sodipodi:nodetypes="cc"/>
        <path id="path2-1-7-3-2-6" class="st2" d="M0,1513.34h2160" sodipodi:nodetypes="cc"/>
      </g>
      <g id="layer1" inkscape:groupmode="layer" inkscape:label="Verticals">
        <path id="path2" class="st0" d="M73.38,0v1584"/>
        <path id="path2-5" class="st0" d="M145.38,0v1584"/>
        <path id="path2-0" class="st0" d="M217.38,0v1584"/>
        <path id="path2-5-9" class="st0" d="M289.39,0v1584"/>
        <path id="path2-6" class="st0" d="M361.39,0v1584"/>
        <path id="path2-5-2" class="st0" d="M433.39,0v1584"/>
        <path id="path2-0-6" class="st0" d="M505.39,0v1584"/>
        <path id="path2-5-9-1" class="st0" d="M577.4,0v1584"/>
        <path id="path2-2" class="st0" d="M649.4,0v1584"/>
        <path id="path2-5-0" class="st0" d="M721.4,0v1584"/>
        <path id="path2-0-2" class="st0" d="M793.41,0v1584"/>
        <path id="path2-5-9-3" class="st0" d="M865.41,0v1584"/>
        <path id="path2-6-7" class="st0" d="M937.41,0v1584"/>
        <path id="path2-5-2-5" class="st0" d="M1009.41,0v1584"/>
        <path id="path2-0-6-9" class="st0" d="M1081.42,0v1584"/>
        <path id="path2-5-9-1-2" class="st0" d="M1153.42,0v1584"/>
        <path id="path2-7" class="st0" d="M1225.42,0v1584"/>
        <path id="path2-5-3" class="st0" d="M1297.43,0v1584"/>
        <path id="path2-0-61" class="st0" d="M1369.43,0v1584"/>
        <path id="path2-5-9-2" class="st0" d="M1441.43,0v1584"/>
        <path id="path2-6-9" class="st0" d="M1513.43,0v1584"/>
        <path id="path2-5-2-3" class="st0" d="M1585.44,0v1584"/>
        <path id="path2-0-6-1" class="st0" d="M1657.44,0v1584"/>
        <path id="path2-5-9-1-9" class="st0" d="M1729.44,0v1584"/>
        <path id="path2-4" class="st0" d="M1801.45,0v1584"/>
        <path id="path2-5-5" class="st0" d="M1873.45,0v1584"/>
        <path id="path2-0-0" class="st0" d="M1945.45,0v1584"/>
        <path id="path2-5-9-36" class="st0" d="M2017.45,0v1584"/>
        <path id="path2-6-1" class="st0" d="M2089.46,0v1584"/>
      </g>
    </g>
  </g>
  <g id="centerline">
    <path id="path2-0-6-91" data-name="path2-0-6-9" class="st1" d="M1080,0v1584"/>
    <path id="path2-1-7-81" data-name="path2-1-7-8" class="st1" d="M0,793.34h2160" sodipodi:nodetypes="cc"/>
  </g>
  <g id="Layer_5">
    <g>
      <path d="M1123.55,1389.86l3.56,5.36v7.08l-3.64,3.72h-10.88v11.84h-4.84v-28h15.8ZM1112.59,1402.9l2.24-1.32h6.68l.76-.76v-4.68l-1.16-1.76h-8.52v8.52Z"/>
      <path d="M1138.51,1387.94l3.8,2.24v21.48l1.16,1.72h6.8v4.48h-9.16l-3.6-5.32v-20.12h-4.96v-4.48h5.96Z"/>
      <path d="M1172.31,1395.74l2.8,4.12v18h-4.84v-1.32l-2.2,1.32h-8.72l-3.6-5.36v-2.12l6.44-6.72h8.08v-3.48h-11.32v-4.44h13.36ZM1161.51,1413.34h8.6v-5.12h-6.12l-3.24,3.32v.08l.76,1.72Z"/>
      <path d="M1199.07,1395.82v23.48l-6.96,7.24h-12.32v-4.52h10.32l4.12-4.16h-10.08l-4.36-6.44v-15.6h4.84v14.72l1.96,2.84h7.64v-17.56h4.84Z"/>
      <path d="M1219.35,1395.74l3.64,5.44-7.08,7.28h-7.32v2.88l1.28,1.88h7.68l2.2-2.28,2.8,3.52-3.28,3.4h-11.8l-3.48-5.2v-13.24l3.56-3.68h11.8ZM1208.59,1404.42h5.56l2.96-3.12-.64-.92h-6.96l-.92.96v3.08Z"/>
      <path d="M1230.19,1395.82l3.48,2.04,1.96-2.04h9.08l2.72,4.08-3.72,2.52-1.36-2.12h-4.8l-1.28,1.36v11.72h5.68v4.48h-14.52v-4.48h4.04v-11.36l-1.16-1.72h-2.88v-4.48h2.76Z"/>
      <path d="M1276.15,1389.86h13.6l5.76,8.6v15.6l-3.64,3.8h-15.72v-28ZM1280.99,1394.38v19h8.88l.8-.8v-13.2l-3.4-5h-6.28Z"/>
      <path d="M1302.19,1395.82l3.48,2.04,1.96-2.04h9.08l2.72,4.08-3.72,2.52-1.36-2.12h-4.8l-1.28,1.36v11.72h5.68v4.48h-14.52v-4.48h4.04v-11.36l-1.16-1.72h-2.88v-4.48h2.76Z"/>
      <path d="M1327.51,1395.82h12.04l3.6,5.36v12.88l-3.68,3.8h-12l-3.64-5.36v-12.88l3.68-3.8ZM1328.63,1411.62l1.16,1.72h7.76l.72-.76v-10.56l-1.16-1.72h-7.72l-.76.84v10.48Z"/>
      <path d="M1363.54,1395.82l3.52,5.36v12.88l-3.68,3.8h-8.56l-2.2-1.28v9.92h-4.84v-30.68h4.84v1.32l2.12-1.32h8.8ZM1353.79,1413.38h7.72l.72-.76v-10.52l-1.16-1.76h-7.68l-.76.76v10.52l1.16,1.76Z"/>
      <path d="M1415.1,1389.86v7.8l-2.8,3h.4v4.48h-5.52l.4.24-7,7.24v.72h14.52v4.52h-19.36v-6.64l5.84-6.08h-1v-4.48h6.24l-.48-.32,3.92-4.16v-1.8h-14.52v-4.52h19.36Z"/>
      <path d="M1423.5,1395.82h12.04l3.6,5.36v12.88l-3.68,3.8h-12l-3.64-5.36v-12.88l3.68-3.8ZM1424.62,1411.62l1.16,1.72h7.76l.72-.76v-10.56l-1.16-1.72h-7.72l-.76.84v10.48Z"/>
      <path d="M1448.62,1395.82v1.32l2.2-1.32h8.68l3.6,5.32v16.72h-4.84v-15.84l-1.16-1.72h-7.76l-.72.84v16.72h-4.84v-22.04h4.84Z"/>
      <path d="M1483.34,1395.74l3.64,5.44-7.08,7.28h-7.32v2.88l1.28,1.88h7.68l2.2-2.28,2.8,3.52-3.28,3.4h-11.8l-3.48-5.2v-13.24l3.56-3.68h11.8ZM1472.58,1404.42h5.56l2.96-3.12-.64-.92h-6.96l-.92.96v3.08Z"/>
    </g>
    <g>
      <path d="M1854.12,25.33v28h-4.84v-8.8l-9.32-13.88h-.32v22.68h-4.84v-28h7.56l6.92,10.96v-10.96h4.84Z"/>
      <path d="M1874.56,25.33l3.56,5.36v7.08l-3.64,3.72h-10.88v11.84h-4.84v-28h15.8ZM1863.6,38.37l2.24-1.32h6.68l.76-.76v-4.68l-1.16-1.76h-8.52v8.52Z"/>
      <path d="M1886.52,25.33h12.04l3.52,5.36v18.8l-3.64,3.84h-12l-3.64-5.36v-18.8l3.72-3.84ZM1887.64,47.09l1.16,1.72h7.68l.76-.8v-16.44l-1.16-1.72h-7.72l-.72.8v16.44Z"/>
      <path d="M1931.16,25.33h13.6l5.76,8.6v15.6l-3.64,3.8h-15.72v-28ZM1936,29.85v19h8.88l.8-.8v-13.2l-3.4-5h-6.28Z"/>
      <path d="M1957.2,31.29l3.48,2.04,1.96-2.04h9.08l2.72,4.08-3.72,2.52-1.36-2.12h-4.8l-1.28,1.36v11.72h5.68v4.48h-14.52v-4.48h4.04v-11.36l-1.16-1.72h-2.88v-4.48h2.76Z"/>
      <path d="M1982.52,31.29h12.04l3.6,5.36v12.88l-3.68,3.8h-12l-3.64-5.36v-12.88l3.68-3.8ZM1983.64,47.09l1.16,1.72h7.76l.72-.76v-10.56l-1.16-1.72h-7.72l-.76.84v10.48Z"/>
      <path d="M2018.56,31.29l3.52,5.36v12.88l-3.68,3.8h-8.56l-2.2-1.28v9.92h-4.84v-30.68h4.84v1.32l2.12-1.32h8.8ZM2008.8,48.85h7.72l.72-.76v-10.52l-1.16-1.76h-7.68l-.76.76v10.52l1.16,1.76Z"/>
      <path d="M2070.12,25.33v7.8l-2.8,3h.4v4.48h-5.52l.4.24-7,7.24v.72h14.52v4.52h-19.36v-6.64l5.84-6.08h-1v-4.48h6.24l-.48-.32,3.92-4.16v-1.8h-14.52v-4.52h19.36Z"/>
      <path d="M2078.52,31.29h12.04l3.6,5.36v12.88l-3.68,3.8h-12l-3.64-5.36v-12.88l3.68-3.8ZM2079.64,47.09l1.16,1.72h7.76l.72-.76v-10.56l-1.16-1.72h-7.72l-.76.84v10.48Z"/>
      <path d="M2103.64,31.29v1.32l2.2-1.32h8.68l3.6,5.32v16.72h-4.84v-15.84l-1.16-1.72h-7.76l-.72.84v16.72h-4.84v-22.04h4.84Z"/>
      <path d="M2138.36,31.21l3.64,5.44-7.08,7.28h-7.32v2.88l1.28,1.88h7.68l2.2-2.28,2.8,3.52-3.28,3.4h-11.8l-3.48-5.2v-13.24l3.56-3.68h11.8ZM2127.6,39.89h5.56l2.96-3.12-.64-.92h-6.96l-.92.96v3.08Z"/>
    </g>
    <g>
      <path d="M45.5,25.33v28h-4.84v-8.8l-9.32-13.88h-.32v22.68h-4.84v-28h7.56l6.92,10.96v-10.96h4.84Z"/>
      <path d="M65.94,25.33l3.56,5.36v7.08l-3.64,3.72h-10.88v11.84h-4.84v-28h15.8ZM54.98,38.37l2.24-1.32h6.68l.76-.76v-4.68l-1.16-1.76h-8.52v8.52Z"/>
      <path d="M77.9,25.33h12.04l3.52,5.36v18.8l-3.64,3.84h-12l-3.64-5.36v-18.8l3.72-3.84ZM79.02,47.09l1.16,1.72h7.68l.76-.8v-16.44l-1.16-1.72h-7.72l-.72.8v16.44Z"/>
      <path d="M122.54,25.33h13.6l5.76,8.6v15.6l-3.64,3.8h-15.72v-28ZM127.38,29.85v19h8.88l.8-.8v-13.2l-3.4-5h-6.28Z"/>
      <path d="M148.58,31.29l3.48,2.04,1.96-2.04h9.08l2.72,4.08-3.72,2.52-1.36-2.12h-4.8l-1.28,1.36v11.72h5.68v4.48h-14.52v-4.48h4.04v-11.36l-1.16-1.72h-2.88v-4.48h2.76Z"/>
      <path d="M173.9,31.29h12.04l3.6,5.36v12.88l-3.68,3.8h-12l-3.64-5.36v-12.88l3.68-3.8ZM175.02,47.09l1.16,1.72h7.76l.72-.76v-10.56l-1.16-1.72h-7.72l-.76.84v10.48Z"/>
      <path d="M209.94,31.29l3.52,5.36v12.88l-3.68,3.8h-8.56l-2.2-1.28v9.92h-4.84v-30.68h4.84v1.32l2.12-1.32h8.8ZM200.18,48.85h7.72l.72-.76v-10.52l-1.16-1.76h-7.68l-.76.76v10.52l1.16,1.76Z"/>
      <path d="M261.5,25.33v7.8l-2.8,3h.4v4.48h-5.52l.4.24-7,7.24v.72h14.52v4.52h-19.36v-6.64l5.84-6.08h-1v-4.48h6.24l-.48-.32,3.92-4.16v-1.8h-14.52v-4.52h19.36Z"/>
      <path d="M269.9,31.29h12.04l3.6,5.36v12.88l-3.68,3.8h-12l-3.64-5.36v-12.88l3.68-3.8ZM271.02,47.09l1.16,1.72h7.76l.72-.76v-10.56l-1.16-1.72h-7.72l-.76.84v10.48Z"/>
      <path d="M295.02,31.29v1.32l2.2-1.32h8.68l3.6,5.32v16.72h-4.84v-15.84l-1.16-1.72h-7.76l-.72.84v16.72h-4.84v-22.04h4.84Z"/>
      <path d="M329.74,31.21l3.64,5.44-7.08,7.28h-7.32v2.88l1.28,1.88h7.68l2.2-2.28,2.8,3.52-3.28,3.4h-11.8l-3.48-5.2v-13.24l3.56-3.68h11.8ZM318.98,39.89h5.56l2.96-3.12-.64-.92h-6.96l-.92.96v3.08Z"/>
    </g>
  </g>
  <g id="Layer_6">
    <g>
      <circle cx="1081.42" cy="505.34" r="72.24"/>
      <path class="st3" d="M1087.74,466.36v61.86h18.24v11.52h-49.12v-11.52h18.45v-44.13l-11.01,11.52-6.62-9.89,18.85-19.36h11.21Z"/>
    </g>
    <g>
      <circle cx="577.4" cy="434.26" r="72.24"/>
      <path class="st3" d="M593.5,395.28l8.76,13.15v10.09l-36.89,38.22v.41h36.89v11.52h-49.12v-15.7l37.71-38.73-4.99-7.44h-18.45l-8.36,8.26-6.52-9.48,10.09-10.29h30.88Z"/>
    </g>
    <g>
      <circle cx="1585.44" cy="433.34" r="72.24"/>
      <path class="st3" d="M1610.1,394.36v11.42l-17.53,18.14h6.93l10.6,15.9v17.73l-9.68,10.19h-39.65v-11.52h34.55l2.55-2.45v-11.72l-6.01-8.66h-15.59v-9.07l17.94-18.45h-33.43v-11.52h49.33Z"/>
    </g>
    <g>
      <circle cx="73.38" cy="433.34" r="71.03"/>
      <path class="st8" d="M107.02,419.29c0-16.66-12.82-30.29-34.18-30.29s-33.11,13.63-33.11,30.29,4.7,14.52,4.7,23.93c0,3.53-3.42,1.82-3.42,9.4,0,8.33,11.64,7.16,15.06,10.57,3.41,3.42,3.09,9.73,3.09,9.73,0,0,.64,2.56,1.82,1.81,0,0,.75,1.82,1.6.75,0,0,.85,1.81,1.71.32,0,0,.86,2.03,2.24.53,0,0,1.39,2.03,3,.43,0,0,1.81,1.71,3.84.43,2.03,1.28,3.84-.43,3.84-.43,1.6,1.6,3-.43,3-.43,1.39,1.5,2.23-.53,2.23-.53.86,1.49,1.71-.32,1.71-.32.86,1.07,1.61-.75,1.61-.75,1.17.75,1.81-1.81,1.81-1.81,0,0-.32-6.3,3.1-9.72,3.42-3.41,15.06-2.24,15.06-10.57,0-7.59-3.41-5.88-3.41-9.4,0-9.4,4.7-7.27,4.7-23.93h-.01ZM56.74,451.02c-5.74.92-8.34-.69-8.97-4.8-1.64-10.72,8.23-12.45,13.14-11.86,2.35.28,6.41,2.78,6.41,5.88,0,8.33-5.24,9.93-10.58,10.79h0ZM76.47,464.9c-1.06,0-2.77-1.39-2.88-3.95-.11,2.56-2.03,3.95-3.09,3.95s-2.67-1.06-2.78-3.63c-.11-2.56,3.31-12.92,5.77-12.92s5.88,10.36,5.77,12.92-1.71,3.63-2.78,3.63h0ZM98.69,446.22c-.62,4.11-3.23,5.72-8.97,4.8-5.34-.86-10.57-2.46-10.57-10.79,0-3.1,4.06-5.6,6.41-5.88,4.91-.59,14.78,1.14,13.14,11.86h0Z"/>
    </g>
    <g>
      <circle cx="2089.46" cy="433.34" r="71.03"/>
      <path class="st8" d="M2123.1,419.29c0-16.66-12.82-30.29-34.18-30.29s-33.11,13.63-33.11,30.29,4.7,14.52,4.7,23.93c0,3.53-3.42,1.82-3.42,9.4,0,8.33,11.64,7.16,15.06,10.57,3.41,3.42,3.09,9.73,3.09,9.73,0,0,.64,2.56,1.82,1.81,0,0,.75,1.82,1.6.75,0,0,.85,1.81,1.71.32,0,0,.86,2.03,2.24.53,0,0,1.39,2.03,3,.43,0,0,1.81,1.71,3.84.43,2.03,1.28,3.84-.43,3.84-.43,1.6,1.6,3-.43,3-.43,1.39,1.5,2.23-.53,2.23-.53.86,1.49,1.71-.32,1.71-.32.86,1.07,1.61-.75,1.61-.75,1.17.75,1.81-1.81,1.81-1.81,0,0-.32-6.3,3.1-9.72,3.42-3.41,15.06-2.24,15.06-10.57,0-7.59-3.41-5.88-3.41-9.4,0-9.4,4.7-7.27,4.7-23.93h-.01ZM2072.81,451.02c-5.74.92-8.34-.69-8.97-4.8-1.64-10.72,8.23-12.45,13.14-11.86,2.35.28,6.41,2.78,6.41,5.88,0,8.33-5.24,9.93-10.58,10.79h0ZM2092.55,464.9c-1.06,0-2.77-1.39-2.88-3.95-.11,2.56-2.03,3.95-3.09,3.95s-2.67-1.06-2.78-3.63c-.11-2.56,3.31-12.92,5.77-12.92s5.88,10.36,5.77,12.92-1.71,3.63-2.78,3.63h0ZM2114.77,446.22c-.62,4.11-3.23,5.72-8.97,4.8-5.34-.86-10.57-2.46-10.57-10.79,0-3.1,4.06-5.6,6.41-5.88,4.91-.59,14.78,1.14,13.14,11.86h0Z"/>
    </g>
  </g>
</svg>