<?xml version="1.0" encoding="UTF-8"?>
<svg xmlns="http://www.w3.org/2000/svg" version="1.1" viewBox="0 0 512 512">
  <!-- Generator: Adobe Illustrator 30.0.0, SVG Export Plug-In . SVG Version: 2.1.1 Build 123)  -->
  <defs>
    <style>
      .st0 {
        fill: #fff;
      }

      .st1 {
        fill: #f80;
      }

      .st2 {
        display: none;
      }
    </style>
  </defs>
  <g id="Layer_2">
    <circle cx="248.01" cy="248" r="212.64"/>
  </g>
  <g id="Layer_3">
    <path class="st0" d="M320.61,133.28v33.6l-51.6,53.4h20.4l31.2,46.8v52.2l-28.5,30h-116.7v-33.9h101.7l7.5-7.2v-34.5l-17.7-25.5h-45.9v-26.7l52.8-54.3h-98.4v-33.9h145.2Z"/>
  </g>
  <g id="Layer_1" class="st2">
    <path class="st1" d="M348.73,205.96c0-49.88-38.37-90.69-102.32-90.69s-99.13,40.8-99.13,90.69,14.08,43.48,14.08,71.64c0,10.56-10.24,5.44-10.24,28.15,0,24.93,34.85,21.42,45.09,31.64,10.22,10.24,9.26,29.12,9.26,29.12,0,0,1.93,7.66,5.45,5.42,0,0,2.24,5.44,4.8,2.24,0,0,2.55,5.43,5.11.96,0,0,2.56,6.07,6.72,1.6,0,0,4.15,6.07,8.97,1.28,0,0,5.43,5.11,11.5,1.28,6.07,3.83,11.51-1.28,11.51-1.28,4.79,4.79,8.97-1.28,8.97-1.28,4.15,4.48,6.69-1.6,6.69-1.6,2.58,4.47,5.11-.96,5.11-.96,2.57,3.2,4.82-2.24,4.82-2.24,3.51,2.24,5.43-5.43,5.43-5.43,0,0-.96-18.86,9.27-29.1,10.24-10.22,45.08-6.71,45.08-31.65,0-22.71-10.22-17.6-10.22-28.15,0-28.15,14.08-21.75,14.08-71.64h-.02ZM198.19,300.95c-17.19,2.75-24.97-2.07-26.85-14.38-4.9-32.09,24.63-37.27,39.34-35.51,7.04.85,19.19,8.31,19.19,17.6,0,24.94-15.68,29.74-31.67,32.3ZM257.27,342.5c-3.18,0-8.29-4.15-8.62-11.82-.32,7.67-6.07,11.83-9.26,11.83s-8-3.18-8.33-10.87c-.32-7.67,9.91-38.69,17.28-38.69s17.59,31.02,17.26,38.69c-.33,7.67-5.11,10.87-8.32,10.87h0ZM323.79,286.56c-1.87,12.31-9.67,17.13-26.86,14.38-15.99-2.56-31.65-7.36-31.65-32.3,0-9.28,12.15-16.75,19.19-17.6,14.7-1.76,44.25,3.42,39.34,35.51h0Z"/>
  </g>
</svg>