<?xml version="1.0" encoding="UTF-8" standalone="no"?>
<!-- Created with Inkscape (http://www.inkscape.org/) -->

<svg
   width="100mm"
   height="100mm"
   viewBox="0 0 100 100"
   version="1.1"
   id="svg1"
   sodipodi:docname="Orders_Conceal.svg"
   inkscape:version="1.4.2 (ebf0e940d0, 2025-05-08)"
   xmlns:inkscape="http://www.inkscape.org/namespaces/inkscape"
   xmlns:sodipodi="http://sodipodi.sourceforge.net/DTD/sodipodi-0.dtd"
   xmlns="http://www.w3.org/2000/svg"
   xmlns:svg="http://www.w3.org/2000/svg">
  <sodipodi:namedview
     id="namedview1"
     pagecolor="#ffffff"
     bordercolor="#eeeeee"
     borderopacity="1"
     inkscape:showpageshadow="0"
     inkscape:pageopacity="0"
     inkscape:pagecheckerboard="0"
     inkscape:deskcolor="#505050"
     inkscape:document-units="mm"
     inkscape:zoom="1.0645786"
     inkscape:cx="185.98909"
     inkscape:cy="38.982561"
     inkscape:window-width="1920"
     inkscape:window-height="1048"
     inkscape:window-x="0"
     inkscape:window-y="0"
     inkscape:window-maximized="1"
     inkscape:current-layer="layer5" />
  <defs
     id="defs1" />
  <g
     inkscape:label="Layer 1"
     inkscape:groupmode="layer"
     id="layer1" />
  <g
     inkscape:groupmode="layer"
     id="layer2"
     inkscape:label="Layer 2"
     style="display:none">
    <path
       style="fill:#000000;stroke-width:0.966409"
       d="m 64.8531,90.377905 c -0.296518,-0.07931 -0.459067,-0.393598 -0.481908,-0.931834 -0.01895,-0.446765 -0.04781,-1.154833 -0.06381,-1.573499 -0.01969,-0.505651 -0.17967,-0.790933 -0.476944,-0.849744 -0.387549,-0.07668 -0.447464,0.12358 -0.447464,1.496334 v 1.584882 L 62.5706,89.941662 c -0.446803,-0.08955 -0.871113,-0.221232 -0.942926,-0.293045 -0.07172,-0.07172 -0.180774,-0.8242 -0.242068,-1.672014 -0.09048,-1.251234 -0.189784,-1.526328 -0.527313,-1.461283 -0.305273,0.05866 -0.422748,0.385048 -0.44191,1.227198 -0.03641,1.599116 -0.01287,1.568203 -0.905098,1.204266 -0.730707,-0.298157 -0.810115,-0.44272 -0.878323,-1.598821 -0.0412,-0.699058 0.09011,-1.920482 0.29196,-2.714238 0.586639,-2.307332 0.612753,-2.264335 -1.375072,-2.264335 -1.566915,0 -1.809608,-0.07062 -2.41447,-0.703158 -0.718128,-0.750935 -2.491563,-4.028282 -2.491563,-4.604475 0,-0.190262 0.393712,-1.08782 0.874902,-1.994574 l 0.874883,-1.64864 -0.339184,-2.875783 c -0.535073,-4.536653 -0.407595,-6.662494 0.509457,-8.495291 0.971246,-1.941096 3.42235,-4.456638 5.237696,-5.375381 1.739376,-0.880308 4.415609,-1.661991 5.69007,-1.661991 0.821424,0 0.961297,0.08293 0.970916,0.575329 0.0054,0.316436 0.02023,5.673206 0.03126,11.903923 0.01949,10.980544 0.0054,11.345878 -0.490681,11.88978 -0.779053,0.856016 -1.085999,1.588045 -1.085999,2.589911 0,0.89193 0.515544,1.269882 0.894927,0.656044 0.08681,-0.140684 0.295068,-0.255732 0.462563,-0.255768 0.335469,-7.4e-5 0.328113,3.064841 -0.01471,6.261436 -0.196699,1.832151 -0.354632,2.028374 -1.406371,1.747247 z M 60.953751,78.678876 c 2.234159,-0.617221 3.310926,-1.203677 3.403465,-1.853631 0.09563,-0.672246 -0.119535,-0.796267 -3.220209,-1.855897 l -2.373701,-0.811179 -1.054921,0.589783 c -1.521676,0.850701 -1.713998,1.274939 -1.097712,2.421515 1.262431,2.348616 1.281483,2.355254 4.343078,1.509409 z m 10.611331,5.830368 v -5.786581 l 0.926614,0.15043 c 0.509623,0.08276 0.982262,0.206041 1.050287,0.274065 0.06805,0.06805 0.12689,1.73956 0.130753,3.71453 0.0054,2.692316 -0.08165,3.697622 -0.347128,4.017605 -0.194825,0.234749 -0.374899,0.955672 -0.400166,1.602058 -0.02538,0.646408 -0.05407,1.319112 -0.06401,1.494902 -0.0093,0.175806 -0.305641,0.319636 -0.657219,0.319636 h -0.639235 z m -3.441458,3.037844 c -0.28657,-2.557389 -0.434371,-6.711954 -0.238775,-6.711954 0.103535,0 0.401231,0.192875 0.661745,0.428633 0.36309,0.328611 0.543809,0.358439 0.774418,0.127811 0.165509,-0.16551 0.366788,-0.300824 0.447464,-0.300824 0.08072,0 0.125603,1.352011 0.09986,3.004422 -0.08459,5.442715 0.0038,4.922097 -0.83665,4.922097 -0.715461,0 -0.74963,-0.05518 -0.908189,-1.47024 z m 7.358701,-2.109474 c 0,-0.9141 0.04634,-1.288041 0.10317,-0.830997 0.05682,0.457066 0.05682,1.204939 0,1.662021 -0.05665,0.457026 -0.10317,0.08312 -0.10317,-0.831024 z m 3.757288,-7.542977 c -0.02501,-10.223743 -0.02612,-14.078367 -0.0037,-14.830239 l 0.02262,-0.767083 0.493035,0.93318 c 0.928839,1.758079 1.020346,2.878412 0.59942,7.34009 l -0.394574,4.182205 0.934153,1.865309 0.934154,1.86531 -0.889944,1.751184 c -1.71466,3.373949 -1.680988,3.420438 -1.695093,-2.339956 z m -9.935556,1.843722 C 69.152155,79.135132 68.735789,78.367168 68.378785,78.031772 L 67.729656,77.421979 V 65.562045 53.70215 l 1.07333,0.07872 1.073311,0.07872 0.03218,13.487866 c 0.01838,7.418321 -0.04893,13.487869 -0.148039,13.487869 -0.09912,0 -0.304482,-0.493551 -0.456366,-1.096777 z m 6.266889,0.926301 c -0.09379,-0.09361 -0.170474,-0.784129 -0.170474,-1.534163 0,-1.173462 0.06823,-1.363688 0.490092,-1.363688 0.269505,0 0.726109,-0.316436 1.014665,-0.703176 l 0.524592,-0.703159 0.0073,2.237341 0.0073,2.237319 h -0.85232 c -0.468777,0 -0.929023,-0.07668 -1.022774,-0.170474 z M 71.565082,66.004875 c 0,-5.484654 0.09783,-9.972077 0.217534,-9.972077 0.119719,0 0.579873,0.12634 1.022777,0.280704 l 0.80524,0.280724 0.02593,4.385688 c 0.0252,4.26998 0.02373,6.18544 -0.0093,11.622134 l -0.01655,2.6339 -0.886727,0.370502 c -0.487682,0.203761 -0.947928,0.370502 -1.022775,0.370502 -0.07484,0 -0.136085,-4.487441 -0.136085,-9.972077 z m 4.538566,6.990496 -0.703157,-0.370353 v -8.432951 c 0,-9.28694 -0.102989,-8.766946 1.470221,-7.419441 0.574096,0.49171 0.57531,0.510063 0.57531,8.570063 0,8.693885 0.0537,8.388023 -1.342374,7.652682 z"
       id="path21-7"
       inkscape:export-filename="KT3_order-conceal.svg"
       inkscape:export-xdpi="125.22559"
       inkscape:export-ydpi="125.22559" />
  </g>
  <g
     inkscape:groupmode="layer"
     id="layer4"
     inkscape:label="Layer 4"
     style="display:inline" />
  <g
     inkscape:groupmode="layer"
     id="layer5"
     inkscape:label="Layer 5"
     style="display:inline">
    <path
       id="path6-5-5-4"
       d="m 81.718738,40.280998 c -0.222265,0 -0.446212,0.02308 -0.67151,0.07288 -4.289546,0.934303 -8.744725,1.425792 -13.317015,1.425792 -4.563452,0 -9.017552,-0.491489 -13.308219,-1.420285 -0.224243,-0.04881 -0.447266,-0.07189 -0.668179,-0.07189 -1.384934,0 -2.640631,0.922201 -3.01393,2.312642 L 38.159466,89.516835 c -0.460523,1.715165 0.601896,3.453513 2.32923,3.865461 8.743645,2.088432 17.860592,3.187324 27.241517,3.187324 9.381972,0 18.49895,-1.098892 27.242595,-3.187324 1.728422,-0.411948 2.789786,-2.149208 2.330318,-3.865461 L 84.732668,42.594629 c -0.372178,-1.390474 -1.628997,-2.313763 -3.01393,-2.313763"
       style="display:inline;fill:#103471;fill-opacity:1;fill-rule:nonzero;stroke:none;stroke-width:1.10441" />
    <path
       style="display:inline;fill:#000000;stroke-width:1.03977;fill-opacity:1"
       d="m 65.169585,88.099296 c -0.318888,-0.08528 -0.493929,-0.423481 -0.518497,-1.002583 -0.01979,-0.480685 -0.05144,-1.242509 -0.06859,-1.692961 -0.01979,-0.544038 -0.193245,-0.850981 -0.513155,-0.914257 -0.416994,-0.08251 -0.481431,0.132963 -0.481431,1.609939 v 1.705209 l -0.874054,-0.174712 c -0.480739,-0.09636 -0.937272,-0.238028 -1.014537,-0.315293 -0.07717,-0.07717 -0.194564,-0.886773 -0.260518,-1.798956 -0.09728,-1.346229 -0.204127,-1.64221 -0.567369,-1.572226 -0.32845,0.06312 -0.454851,0.414283 -0.475462,1.320368 -0.03924,1.720524 -0.01319,1.687263 -0.973809,1.295695 -0.786171,-0.3208 -0.871615,-0.47633 -0.944989,-1.720204 -0.04419,-0.752133 0.09695,-2.066288 0.313941,-2.920306 0.631179,-2.482509 0.659276,-2.436249 -1.479479,-2.436249 -1.685848,0 -1.946993,-0.07598 -2.59776,-0.756541 -0.772651,-0.807949 -2.680731,-4.334114 -2.680731,-4.954055 0,-0.204721 0.423589,-1.170409 0.941327,-2.146003 l 0.941295,-1.773808 -0.364923,-3.094117 c -0.575712,-4.88108 -0.438528,-7.168319 0.548143,-9.140263 1.044974,-2.088468 3.682176,-4.794993 5.635336,-5.783488 1.871443,-0.947144 4.75086,-1.788173 6.122075,-1.788173 0.883783,0 1.03429,0.08924 1.044612,0.619011 0.0066,0.340458 0.02308,6.103922 0.03364,12.807685 0.01979,11.814201 0.0066,12.207273 -0.527928,12.792469 -0.838209,0.921004 -1.16844,1.708609 -1.16844,2.786541 0,0.959646 0.554672,1.366292 0.962861,0.705849 0.09333,-0.151364 0.317569,-0.27516 0.497689,-0.275193 0.360933,-7.9e-5 0.353018,3.297529 -0.01649,6.736816 -0.211712,1.971251 -0.381543,2.182369 -1.513148,1.879898 z M 60.974189,75.512059 c 2.403757,-0.664081 3.562304,-1.295062 3.661861,-1.994362 0.102888,-0.723283 -0.12861,-0.856721 -3.464692,-1.996798 l -2.553934,-0.872765 -1.135002,0.634559 c -1.637207,0.915286 -1.844138,1.371733 -1.181037,2.605359 1.358255,2.526929 1.378767,2.534072 4.672804,1.624007 z m 11.416957,6.273018 V 75.55917 l 0.996959,0.161851 c 0.548298,0.08904 1.056836,0.221671 1.130012,0.29488 0.07321,0.07321 0.136525,1.871627 0.140812,3.996541 0.0066,2.896721 -0.08772,3.978349 -0.373497,4.322628 -0.209734,0.252571 -0.403342,1.028225 -0.430548,1.72369 -0.02638,0.695481 -0.05804,1.41926 -0.06892,1.608396 -0.0099,0.189156 -0.32878,0.3439 -0.707082,0.3439 h -0.687768 z m -3.702754,3.268479 c -0.308334,-2.751549 -0.467349,-7.221531 -0.25689,-7.221531 0.111462,0 0.431701,0.207524 0.711973,0.461173 0.390678,0.353559 0.58511,0.385652 0.833229,0.137514 0.178075,-0.178076 0.394635,-0.323669 0.48143,-0.323669 0.08673,0 0.135206,1.454657 0.107505,3.232521 -0.09102,5.855935 0.0033,5.295788 -0.900172,5.295788 -0.769781,0 -0.806551,-0.05936 -0.977141,-1.581862 z m 7.917365,-2.269627 c 0,-0.983498 0.04979,-1.385831 0.111133,-0.894085 0.06101,0.491763 0.06101,1.296417 0,1.7882 -0.06101,0.491726 -0.111133,0.08943 -0.111133,-0.894115 z m 4.042548,-8.115649 c -0.02638,-10.999947 -0.02968,-15.147219 -0.0033,-15.956174 l 0.02308,-0.825318 0.530468,1.004027 c 0.999367,1.891552 1.097836,3.096946 0.64493,7.897358 l -0.424512,4.499724 1.005072,2.006929 1.005072,2.006925 -0.957519,1.884136 c -1.844831,3.630102 -1.808589,3.680121 -1.823792,-2.517607 z m -10.689838,1.983697 c -0.163565,-0.649023 -0.611426,-1.475294 -0.995541,-1.836151 l -0.69842,-0.65609 V 61.399379 48.639063 l 1.154821,0.08469 1.15482,0.08469 0.03463,14.511885 c 0.01979,7.981528 -0.05276,14.511885 -0.159278,14.511885 -0.106516,0 -0.327462,-0.531022 -0.491027,-1.180048 z m 6.74266,0.99663 c -0.10091,-0.100712 -0.183352,-0.843663 -0.183352,-1.650639 0,-1.262553 0.07354,-1.467221 0.527301,-1.467221 0.289868,0 0.781225,-0.340461 1.091703,-0.756565 l 0.564401,-0.756541 0.0066,2.4072 0.0066,2.407184 h -0.917024 c -0.504349,0 -0.999565,-0.08251 -1.100408,-0.183418 z M 72.391146,61.875831 c 0,-5.901057 0.105196,-10.729173 0.234136,-10.729173 0.12894,0 0.623891,0.135931 1.100441,0.302003 l 0.866362,0.302037 0.02638,4.718657 c 0.02638,4.594161 0.02638,6.655046 -0.0099,12.504502 l -0.01649,2.833869 -0.954047,0.398629 c -0.524697,0.219231 -1.019879,0.398632 -1.100409,0.398632 -0.08046,0 -0.146418,-4.828132 -0.146418,-10.72917 z m 4.88312,7.521222 -0.756557,-0.39847 v -9.073192 c 0,-9.992018 -0.110803,-9.432544 1.581872,-7.982735 0.617659,0.52904 0.618978,0.548787 0.618978,9.220714 0,9.353938 0.05771,9.024854 -1.444293,8.233683 z"
       id="path21-7-2-5"
       inkscape:export-filename="KT3_order-conceal.svg"
       inkscape:export-xdpi="125.22559"
       inkscape:export-ydpi="125.22559" />
  </g>
  <g
     inkscape:groupmode="layer"
     id="layer3"
     inkscape:label="Layer 3"
     style="display:inline">
    <path
       id="path6-5-5"
       d="m 44.15965,0.93447964 c -0.222265,0 -0.446212,0.02308 -0.67151,0.07288 -4.289546,0.934303 -8.744725,1.425792 -13.317015,1.425792 -4.563452,0 -9.017552,-0.491489 -13.308219,-1.420285 -0.224243,-0.04881 -0.447266,-0.07189 -0.668179,-0.07189 -1.384934,0 -2.640631,0.92220096 -3.01393,2.31264196 L 0.60037807,50.170317 c -0.460523,1.715165 0.60189603,3.453513 2.32923003,3.865461 8.7436449,2.088432 17.8605919,3.187324 27.2415169,3.187324 9.381972,0 18.49895,-1.098892 27.242595,-3.187324 1.728422,-0.411948 2.789786,-2.149208 2.330318,-3.865461 L 47.17358,3.2481106 C 46.801402,1.8576366 45.544583,0.93434764 44.15965,0.93434764"
       style="fill:#194eaf;fill-opacity:1;fill-rule:nonzero;stroke:none;stroke-width:1.10441" />
    <path
       style="fill:#ffffff;stroke-width:1.03977"
       d="M 27.610497,48.752778 C 27.291609,48.667498 27.116568,48.329297 27.092,47.750195 27.07221,47.26951 27.04056,46.507686 27.02341,46.057234 c -0.01979,-0.544038 -0.193245,-0.850981 -0.513155,-0.914257 -0.416994,-0.08251 -0.481431,0.132963 -0.481431,1.609939 v 1.705209 L 25.15477,48.283413 c -0.480739,-0.09636 -0.937272,-0.238028 -1.014537,-0.315293 -0.07717,-0.07717 -0.194564,-0.886773 -0.260518,-1.798956 -0.09728,-1.346229 -0.204127,-1.64221 -0.567369,-1.572226 -0.32845,0.06312 -0.454851,0.414283 -0.475462,1.320368 -0.03924,1.720524 -0.01319,1.687263 -0.973809,1.295695 -0.786171,-0.3208 -0.871615,-0.47633 -0.944989,-1.720204 -0.04419,-0.752133 0.09695,-2.066288 0.313941,-2.920306 0.631179,-2.482509 0.659276,-2.436249 -1.479479,-2.436249 -1.685848,0 -1.946993,-0.07598 -2.59776,-0.756541 -0.772651,-0.807949 -2.680731,-4.334114 -2.680731,-4.954055 0,-0.204721 0.423589,-1.170409 0.941327,-2.146003 l 0.941295,-1.773808 -0.364923,-3.094117 c -0.575712,-4.88108 -0.438528,-7.168319 0.548143,-9.140263 1.044974,-2.088468 3.682176,-4.794993 5.635336,-5.783488 1.871443,-0.947144 4.75086,-1.788173 6.122075,-1.788173 0.883783,0 1.03429,0.08924 1.044612,0.619011 0.0066,0.340458 0.02308,6.103922 0.03364,12.807685 0.01979,11.814201 0.0066,12.207273 -0.527928,12.792469 -0.838209,0.921004 -1.16844,1.708609 -1.16844,2.786541 0,0.959646 0.554672,1.366292 0.962861,0.705849 0.09333,-0.151364 0.317569,-0.27516 0.497689,-0.275193 0.360933,-7.9e-5 0.353018,3.297529 -0.01649,6.736816 -0.211712,1.971251 -0.381543,2.182369 -1.513148,1.879898 z M 23.415101,36.165541 c 2.403757,-0.664081 3.562304,-1.295062 3.661861,-1.994362 0.102888,-0.723283 -0.12861,-0.856721 -3.464692,-1.996798 l -2.553934,-0.872765 -1.135002,0.634559 c -1.637207,0.915286 -1.844138,1.371733 -1.181037,2.605359 1.358255,2.526929 1.378767,2.534072 4.672804,1.624007 z m 11.416957,6.273018 v -6.225907 l 0.996959,0.161851 c 0.548298,0.08904 1.056836,0.221671 1.130012,0.29488 0.07321,0.07321 0.136525,1.871627 0.140812,3.996541 0.0066,2.896721 -0.08772,3.978349 -0.373497,4.322628 -0.209734,0.252571 -0.403342,1.028225 -0.430548,1.72369 -0.02638,0.695481 -0.05804,1.41926 -0.06892,1.608396 -0.0099,0.189156 -0.32878,0.3439 -0.707082,0.3439 h -0.687768 z m -3.702754,3.268479 c -0.308334,-2.751549 -0.467349,-7.221531 -0.25689,-7.221531 0.111462,0 0.431701,0.207524 0.711973,0.461173 0.390678,0.353559 0.58511,0.385652 0.833229,0.137514 0.178075,-0.178076 0.394635,-0.323669 0.48143,-0.323669 0.08673,0 0.135206,1.454657 0.107505,3.232521 -0.09102,5.855935 0.0033,5.295788 -0.900172,5.295788 -0.769781,0 -0.806551,-0.05936 -0.977141,-1.581862 z m 7.917365,-2.269627 c 0,-0.983498 0.04979,-1.385831 0.111133,-0.894085 0.06101,0.491763 0.06101,1.296417 0,1.7882 -0.06101,0.491726 -0.111133,0.08943 -0.111133,-0.894115 z m 4.042548,-8.115649 c -0.02638,-10.999947 -0.02968,-15.147219 -0.0033,-15.956174 l 0.02308,-0.825318 0.530468,1.004027 c 0.999367,1.891552 1.097836,3.096946 0.64493,7.897358 l -0.424512,4.499724 1.005072,2.006929 1.005072,2.006925 -0.957519,1.884136 c -1.844831,3.630102 -1.808589,3.680121 -1.823792,-2.517607 z m -10.689838,1.983697 c -0.163565,-0.649023 -0.611426,-1.475294 -0.995541,-1.836151 l -0.69842,-0.65609 V 22.052861 9.2925451 l 1.154821,0.084685 1.15482,0.084685 0.03463,14.5118849 c 0.01979,7.981528 -0.05276,14.511885 -0.159278,14.511885 -0.106516,0 -0.327462,-0.531022 -0.491027,-1.180048 z m 6.74266,0.99663 c -0.10091,-0.100712 -0.183352,-0.843663 -0.183352,-1.650639 0,-1.262553 0.07354,-1.467221 0.527301,-1.467221 0.289868,0 0.781225,-0.340461 1.091703,-0.756565 l 0.564401,-0.756541 0.0066,2.4072 0.0066,2.407184 h -0.917024 c -0.504349,0 -0.999565,-0.08251 -1.100408,-0.183418 z M 34.832058,22.529313 c 0,-5.901057 0.105196,-10.729173 0.234136,-10.729173 0.12894,0 0.623891,0.135931 1.100441,0.302003 l 0.866362,0.302037 0.02638,4.718657 c 0.02638,4.594161 0.02638,6.655046 -0.0099,12.504502 l -0.01649,2.833869 -0.954047,0.398629 c -0.524697,0.219231 -1.019879,0.398632 -1.100409,0.398632 -0.08046,0 -0.146418,-4.828132 -0.146418,-10.72917 z m 4.88312,7.521222 -0.756557,-0.39847 v -9.073192 c 0,-9.992018 -0.110803,-9.432544 1.581872,-7.982735 0.617659,0.52904 0.618978,0.548787 0.618978,9.220714 0,9.353938 0.05771,9.024854 -1.444293,8.233683 z"
       id="path21-7-2"
       inkscape:export-filename="KT3_order-conceal.svg"
       inkscape:export-xdpi="125.22559"
       inkscape:export-ydpi="125.22559" />
    <path
       id="path6-5-2"
       d="m 160.07534,-40.348867 c -0.22226,0 -0.44621,0.02308 -0.67151,0.07288 -4.28954,0.934303 -8.74473,1.425792 -13.31702,1.425792 -4.56345,0 -9.01755,-0.491489 -13.30822,-1.420285 -0.22425,-0.04881 -0.44727,-0.07189 -0.66818,-0.07189 -1.38494,0 -2.64063,0.922201 -3.01393,2.312642 L 116.51606,8.88697 c -0.46052,1.715165 0.60189,3.453513 2.32923,3.865461 8.74364,2.088432 17.86059,3.187323 27.24152,3.187323 9.38198,0 18.49896,-1.098891 27.2426,-3.187323 1.72843,-0.411948 2.78979,-2.149208 2.33032,-3.865461 l -12.57046,-46.922205 c -0.37217,-1.390474 -1.62899,-2.313763 -3.01393,-2.313763"
       style="fill:#ff8800;fill-opacity:1;fill-rule:nonzero;stroke:none;stroke-width:1.10441" />
    <path
       style="fill:#ffffff;stroke-width:1.17125"
       d="M 141.13634,7.37949 C 141.0229,7.265918 140.9299,5.329817 140.9299,3.07714 c 0,-3.98550804 0.0198,-4.100802 0.69727,-4.282637 1.23393,-0.33069 2.06281,-0.208744 2.35904,0.34699096 0.21666,0.406427 0.25788,5.88189404 0.0623,8.21217204 -0.0231,0.287493 -2.62714,0.310577 -2.91187,0.02572 z m -4.85501,-4.43963 c -2.08988,-1.13385 -4.58455,-3.76894404 -5.57986,-5.893885 -0.8425,-1.798765 -0.65338,-2.152166 1.15613,-2.160773 0.87604,-0.004 1.07403,0.157894 1.60404,1.312302 0.68328,1.488297 2.33628,3.17410296 4.30947,4.39502896 1.22872,0.76028404 1.32729,0.91695104 1.23957,1.97034104 -0.12268,1.473797 -0.58907,1.538221 -2.72935,0.376986 z m 9.91658,-0.462858 c 0,-1.275312 0.0834,-1.425331 1.00715,-1.81302104 1.28475,-0.539174 3.41935,-2.73700596 4.15605,-4.27920096 0.31328,-0.656073 0.77902,-1.259097 1.03469,-1.340101 0.54346,-0.17214 2.0947,-0.03232 2.3378,0.210953 0.32911,0.32921 -1.36119,3.599842 -2.53606,4.90686096 C 150.8377,1.675305 147.62617,3.86739 146.76966,3.86739 c -0.47078,0 -0.57175,-0.245546 -0.57175,-1.390375 z m -19.35036,-9.833954 c -0.0683,-0.218175 -0.20842,-0.902546 -0.31065,-1.520825 -0.1629,-0.984465 -0.0986,-1.147582 0.51817,-1.312797 1.31281,-0.351738 7.92661,-0.222429 8.05324,0.157498 0.0653,0.195092 0.0416,0.927145 -0.0518,1.626923 l -0.1695,1.27237 -3.9573,0.08686 c -3.0047,0.06589 -3.98728,-0.0079 -4.08196,-0.309884 z m 23.0482,-0.182428 c -0.0132,-0.288252 -0.0798,-0.977339 -0.15235,-1.531292 -0.11345,-0.870493 -0.0373,-1.010583 0.56318,-1.032546 0.38207,-0.01385 1.88001,-0.07499 3.32876,-0.135931 1.44874,-0.06074 3.0873,-0.03383 3.64125,0.05995 0.95742,0.162048 1.00718,0.237566 1.00718,1.530405 0,1.194274 -0.0851,1.36396 -0.69726,1.392198 -6.18239,0.285185 -7.67032,0.230476 -7.69079,-0.282777 z m 6.35789,-5.472449 c -0.24699,-0.591073 -0.44901,-1.201041 -0.44901,-1.355492 0,-0.698235 -1.724,-3.254419 -3.04239,-4.510861 -2.51736,-2.399193 -4.26208,-3.512051 -6.09949,-3.89056 -0.77525,-0.159675 -0.94604,-0.36001 -1.02815,-1.205711 -0.097,-1.00065 -0.0841,-1.011532 0.96817,-0.814106 l 1.0666,0.200105 0.21732,-2.118942 c 0.30339,-2.955485 0.49146,-4.116165 0.78987,-4.873798 0.23908,-0.606842 0.28426,-0.580942 0.6261,0.358921 0.20248,0.557103 0.92675,2.160813 1.60901,3.563772 l 1.24049,2.55088 2.52799,-2.711583 c 1.3904,-1.491364 2.63054,-2.711561 2.75582,-2.711561 0.41646,0 0.12498,2.245477 -0.8795,6.777667 -0.15829,0.714459 -0.12168,0.728962 1.32445,0.525145 0.818,-0.115156 2.51658,-0.416044 3.77458,-0.668358 1.25801,-0.252306 2.37365,-0.3683 2.47914,-0.257781 0.10553,0.110605 -1.04342,1.359509 -2.55321,2.775491 -1.50978,1.415998 -2.67159,2.690211 -2.58176,2.831564 0.09,0.141471 1.63618,0.954327 3.4363,1.806541 1.80014,0.852191 3.2757,1.631411 3.27903,1.731588 0.003,0.100118 -1.57798,0.358684 -3.51403,0.574475 -4.06698,0.453302 -4.43794,0.594931 -3.94938,1.507823 0.49089,0.917231 0.4468,0.989451 -0.60358,0.989451 -0.78601,0 -1.02127,-0.181242 -1.39453,-1.074667 z m -25.9386,0.406487 c -0.59936,-0.370417 1.20046,-3.589154 3.00546,-5.374742 1.72598,-1.707432 4.59653,-3.40602 5.29989,-3.136113 0.28723,0.110209 0.44994,0.610997 0.44994,1.38438 0,1.07524 -0.11344,1.258483 -1.00711,1.62708 -1.37634,0.567603 -3.44726,2.528259 -4.41533,4.180072 -0.44083,0.752254 -0.90024,1.385709 -1.0209,1.407688 -0.83188,0.151562 -1.99573,0.107043 -2.31195,-0.08825 z m 21.4414,-0.493922 c -1.16656,-2.28974 -3.85491,-5.035765 -4.92996,-5.035765 -0.18368,0 -0.456,-0.320833 -0.60509,-0.712936 -0.31823,-0.837295 -0.0867,-2.385999 0.35661,-2.385999 0.83471,0 4.14722,2.133247 5.29521,3.410089 1.46115,1.625145 3.16378,4.754033 2.85703,5.250333 -0.11113,0.179461 -0.7278,0.326505 -1.37072,0.326505 -0.96333,0 -1.24525,-0.149979 -1.60308,-0.852211 z m -10.6201,-3.383005 c -0.11344,-0.113573 -0.20644,-1.981313 -0.20644,-4.150413 0,-3.310373 0.0785,-3.974022 0.49017,-4.131896 0.71336,-0.273741 2.23627,-0.230245 2.42127,0.06925 0.15236,0.246075 0.27602,4.326394 0.216,7.102696 l -0.0297,1.31705 h -1.34285 c -0.73862,0 -1.43585,-0.093 -1.54949,-0.206633 z"
       id="path20-6"
       inkscape:export-filename="KT3_order-engage.svg"
       inkscape:export-xdpi="125.22559"
       inkscape:export-ydpi="125.22559" />
  </g>
  <g
     inkscape:groupmode="layer"
     id="layer6"
     inkscape:label="Layer 6"
     style="display:none">
    <path
       style="fill:#ffffff;fill-opacity:1;stroke-width:0.966409"
       d="m 29.574939,54.045268 c -0.296518,-0.07931 -0.459067,-0.393598 -0.481908,-0.931834 -0.01895,-0.446765 -0.04781,-1.154833 -0.06381,-1.573499 -0.01969,-0.505651 -0.17967,-0.790933 -0.476944,-0.849744 -0.387549,-0.07668 -0.447464,0.12358 -0.447464,1.496334 v 1.584882 l -0.812374,-0.162382 c -0.446803,-0.08955 -0.871113,-0.221232 -0.942926,-0.293045 -0.07172,-0.07172 -0.180774,-0.8242 -0.242068,-1.672014 -0.09048,-1.251234 -0.189784,-1.526328 -0.527313,-1.461283 -0.305273,0.05866 -0.422748,0.385048 -0.44191,1.227198 -0.03641,1.599116 -0.01287,1.568203 -0.905098,1.204266 -0.730707,-0.298157 -0.810115,-0.44272 -0.878323,-1.598821 -0.0412,-0.699058 0.09011,-1.920482 0.29196,-2.714238 0.586639,-2.307332 0.612753,-2.264335 -1.375072,-2.264335 -1.566915,0 -1.809608,-0.07062 -2.41447,-0.703158 -0.718128,-0.750935 -2.491563,-4.028282 -2.491563,-4.604475 0,-0.190262 0.393712,-1.08782 0.874902,-1.994574 l 0.874883,-1.64864 -0.339184,-2.875783 c -0.535073,-4.536653 -0.407595,-6.662494 0.509457,-8.495291 0.971246,-1.941096 3.42235,-4.456638 5.237696,-5.375381 1.739376,-0.880308 4.415609,-1.661991 5.69007,-1.661991 0.821424,0 0.961297,0.08293 0.970916,0.575329 0.0054,0.316436 0.02023,5.673206 0.03126,11.903923 0.01949,10.980544 0.0054,11.345878 -0.490681,11.88978 -0.779053,0.856016 -1.085999,1.588045 -1.085999,2.589911 0,0.89193 0.515544,1.269882 0.894927,0.656044 0.08681,-0.140684 0.295068,-0.255732 0.462563,-0.255768 0.335469,-7.4e-5 0.328113,3.064841 -0.01471,6.261436 -0.196699,1.832151 -0.354632,2.028374 -1.406371,1.747247 z M 25.67559,42.346239 c 2.234159,-0.617221 3.310926,-1.203677 3.403465,-1.853631 0.09563,-0.672246 -0.119535,-0.796267 -3.220209,-1.855897 l -2.373701,-0.811179 -1.054921,0.589783 c -1.521676,0.850701 -1.713998,1.274939 -1.097712,2.421515 1.262431,2.348616 1.281483,2.355254 4.343078,1.509409 z m 10.611331,5.830368 v -5.786581 l 0.926614,0.15043 c 0.509623,0.08276 0.982262,0.206041 1.050287,0.274065 0.06805,0.06805 0.12689,1.73956 0.130753,3.71453 0.0054,2.692316 -0.08165,3.697622 -0.347128,4.017605 -0.194825,0.234749 -0.374899,0.955672 -0.400166,1.602058 -0.02538,0.646408 -0.05407,1.319112 -0.06401,1.494902 -0.0093,0.175806 -0.305641,0.319636 -0.657219,0.319636 h -0.639235 z m -3.441458,3.037844 c -0.28657,-2.557389 -0.434371,-6.711954 -0.238775,-6.711954 0.103535,0 0.401231,0.192875 0.661745,0.428633 0.36309,0.328611 0.543809,0.358439 0.774418,0.127811 0.165509,-0.16551 0.366788,-0.300824 0.447464,-0.300824 0.08072,0 0.125603,1.352011 0.09986,3.004422 -0.08459,5.442715 0.0038,4.922097 -0.83665,4.922097 -0.715461,0 -0.74963,-0.05518 -0.908189,-1.47024 z m 7.358701,-2.109474 c 0,-0.9141 0.04634,-1.288041 0.10317,-0.830997 0.05682,0.457066 0.05682,1.204939 0,1.662021 -0.05665,0.457026 -0.10317,0.08312 -0.10317,-0.831024 z M 43.961452,41.562 c -0.02501,-10.223743 -0.02612,-14.078367 -0.0037,-14.830239 l 0.02262,-0.767083 0.493035,0.93318 c 0.928839,1.758079 1.020346,2.878412 0.59942,7.34009 l -0.394574,4.182205 0.934153,1.865309 0.934154,1.86531 -0.889944,1.751184 c -1.71466,3.373949 -1.680988,3.420438 -1.695093,-2.339956 z m -9.935556,1.843722 C 33.873994,42.802495 33.457628,42.034531 33.100624,41.699135 L 32.451495,41.089342 V 29.229408 17.369513 l 1.07333,0.07872 1.073311,0.07872 0.03218,13.487866 c 0.01838,7.418321 -0.04893,13.487869 -0.148039,13.487869 -0.09912,0 -0.304482,-0.493551 -0.456366,-1.096777 z m 6.266889,0.926301 c -0.09379,-0.09361 -0.170474,-0.784129 -0.170474,-1.534163 0,-1.173462 0.06823,-1.363688 0.490092,-1.363688 0.269505,0 0.726109,-0.316436 1.014665,-0.703176 l 0.524592,-0.703159 0.0073,2.237341 0.0073,2.237319 h -0.85232 c -0.468777,0 -0.929023,-0.07668 -1.022774,-0.170474 z M 36.286921,29.672238 c 0,-5.484654 0.09783,-9.972077 0.217534,-9.972077 0.119719,0 0.579873,0.12634 1.022777,0.280704 l 0.80524,0.280724 0.02593,4.385688 c 0.0252,4.26998 0.02373,6.18544 -0.0093,11.622134 l -0.01655,2.6339 -0.886727,0.370502 c -0.487682,0.203761 -0.947928,0.370502 -1.022775,0.370502 -0.07484,0 -0.136085,-4.487441 -0.136085,-9.972077 z m 4.538566,6.990496 -0.703157,-0.370353 V 27.85943 c 0,-9.28694 -0.102989,-8.766946 1.470221,-7.419441 0.574096,0.49171 0.57531,0.510063 0.57531,8.570063 0,8.693885 0.0537,8.388023 -1.342374,7.652682 z"
       id="path21"
       inkscape:export-filename="KT3_order-conceal.svg"
       inkscape:export-xdpi="125.22559"
       inkscape:export-ydpi="125.22559" />
  </g>
</svg>
