<?xml version="1.0" encoding="UTF-8"?>
<svg xmlns="http://www.w3.org/2000/svg" version="1.1" viewBox="0 0 60 60">
  <!-- Generator: Adobe Illustrator 29.8.2, SVG Export Plug-In . SVG Version: 2.1.1 Build 3)  -->
  <defs>
    <style>
      .st0 {
        fill: #ee5c22;
      }

      .st1 {
        display: none;
        opacity: .39;
      }
    </style>
  </defs>
  <g id="Layer_2" class="st1">
    <polygon class="st0" points="29.28 9.51 14.47 9.51 14.47 38.92 29.35 49.76 29.35 57.28 27.87 57.28 8.66 43.6 8.66 2.43 29.35 2.43 29.28 9.51"/>
    <polygon class="st0" points="29.28 12.06 16.88 12.06 16.88 38.07 29.28 46.86 29.28 12.06"/>
    <polygon class="st0" points="29.28 9.5 44.55 9.5 44.55 38.91 29.2 49.76 29.2 57.27 30.74 57.27 50.54 43.59 50.54 2.42 29.2 2.42 29.28 9.5"/>
    <polygon class="st0" points="29.28 12.06 42.07 12.06 42.07 38.06 29.28 46.85 29.28 12.06"/>
  </g>
  <g id="Layer_3">
    <polygon class="st0" points="50.54 2.4 30.93 2.4 30.93 9.5 44.52 9.51 44.52 38.9 30.93 48.52 30.93 56.23 50.54 42.43 50.54 2.4"/>
    <polygon class="st0" points="14.45 38.9 14.45 9.49 27.53 9.5 27.53 2.4 8.69 2.4 8.64 42.43 27.53 56.11 27.53 48.38 14.45 38.9"/>
    <polygon class="st0" points="17.65 13.05 17.65 36.92 27.53 43.92 27.53 13.05 17.65 13.05"/>
    <polygon class="st0" points="41.27 13.07 30.93 13.06 30.93 44.02 41.27 36.9 41.27 13.07"/>
  </g>
</svg>