<?xml version="1.0" encoding="UTF-8"?>
<svg id="Layer_2" data-name="Layer 2" xmlns="http://www.w3.org/2000/svg" viewBox="0 0 64.43 70.28">
  <defs>
    <style>
      .cls-1 {
        fill: #ee5c22;
      }
    </style>
  </defs>
  <polygon class="cls-1" points="31.25 15.24 16.44 15.24 16.44 44.65 31.32 55.49 31.32 63 29.83 63 10.63 49.32 10.63 8.15 31.32 8.15 31.25 15.24"/>
  <polygon class="cls-1" points="31.25 17.79 18.85 17.79 18.85 43.8 31.25 52.58 31.25 17.79"/>
  <polygon class="cls-1" points="31.24 15.23 46.51 15.23 46.51 44.64 31.17 55.48 31.17 62.99 32.7 62.99 52.51 49.31 52.51 8.14 31.17 8.14 31.24 15.23"/>
  <polygon class="cls-1" points="31.24 17.78 44.03 17.78 44.03 43.79 31.24 52.57 31.24 17.78"/>
</svg>