<?xml version="1.0" encoding="UTF-8" standalone="no"?>
<!-- Created with Inkscape (http://www.inkscape.org/) -->

<svg
   width="71mm"
   height="121mm"
   viewBox="0 0 71 121"
   version="1.1"
   id="svg1"
   xml:space="preserve"
   inkscape:version="1.4.2 (ebf0e940d0, 2025-05-08)"
   sodipodi:docname="TopDownSoldier.svg"
   xmlns:inkscape="http://www.inkscape.org/namespaces/inkscape"
   xmlns:sodipodi="http://sodipodi.sourceforge.net/DTD/sodipodi-0.dtd"
   xmlns="http://www.w3.org/2000/svg"
   xmlns:svg="http://www.w3.org/2000/svg"><sodipodi:namedview
     id="namedview1"
     pagecolor="#505050"
     bordercolor="#eeeeee"
     borderopacity="1"
     inkscape:showpageshadow="0"
     inkscape:pageopacity="0"
     inkscape:pagecheckerboard="0"
     inkscape:deskcolor="#505050"
     inkscape:document-units="mm"
     inkscape:zoom="1.5055415"
     inkscape:cx="308.85897"
     inkscape:cy="262.03196"
     inkscape:window-width="1920"
     inkscape:window-height="1048"
     inkscape:window-x="0"
     inkscape:window-y="0"
     inkscape:window-maximized="1"
     inkscape:current-layer="layer2" /><defs
     id="defs1" /><g
     inkscape:groupmode="layer"
     id="layer2"
     inkscape:label="Layer 2"><g
       id="g3"
       transform="translate(-74.33787,-95.426627)"><path
         id="path1"
         style="opacity:1;fill:#ffffff;fill-opacity:1;stroke-width:0.987777"
         d="m 117.52151,95.746094 c -0.0724,-0.003 -0.14404,-0.0023 -0.21394,0.0015 -1.1184,0.06213 -1.86397,0.683162 -1.86397,0.683162 0,0 -0.994,-0.497127 -2.17454,-0.497127 -1.18053,0 -1.67742,0.621668 -1.67742,0.621668 0,0 -1.42898,-0.559382 -2.42311,-0.435116 -0.99413,0.124267 -1.30483,0.497127 -1.30483,0.497127 0,0 -1.30476,-6e-5 -2.92023,0.559139 -1.61547,0.5592 -1.8641,1.491079 -1.80196,2.174545 0.0621,0.683468 0.24856,1.491378 0.24856,1.491378 l -4.660179,0.43512 -0.124023,0.68316 c 0,0 -4.287413,-1.86388 -5.965011,-1.11828 -1.677601,0.7456 -1.18035,3.16898 -1.677417,3.60392 -0.497068,0.43493 -4.473629,1.92598 -4.473629,1.92598 l -2.423108,1.36684 -2.796211,1.49138 -1.739946,1.30483 -1.677417,1.42886 -2.112532,1.86396 c 0,0 -1.864183,2.92033 -0.435116,5.77846 0.225181,0.45037 0.393346,0.78055 0.516764,1.017 -0.112129,0.43457 -0.36037,1.76937 0.353467,3.14606 0.869868,1.6776 1.925981,3.47937 1.925981,3.47937 0,0 -0.497128,1.98841 0.559139,3.35535 1.056267,1.36693 1.863969,2.60966 1.863969,2.60966 0,0 0.186551,1.80165 1.242818,2.48512 1.056267,0.68346 3.976501,2.42311 3.976501,2.42311 l 2.299085,3.72794 2.671671,4.10104 0.621151,0.86971 -1.242818,0.99426 0.932243,0.37258 0.745691,-0.062 3.292822,3.35535 0.932243,0.55914 h 0.434598 l 0.68368,2.67167 0.931726,1.49139 1.367358,1.05626 1.73943,5.71593 1.67793,-0.37259 0.24857,-0.37258 0.31057,0.062 0.062,0.24856 -0.18655,0.18604 3.04478,11.12232 c 0,0 -2.05059,0.80734 -2.54765,2.05 -0.49707,1.24267 -0.24856,2.29909 -0.24856,2.29909 l -0.49713,0.18655 -0.12403,0.49712 -0.49712,0.37259 c 0,0 -0.31058,3.35538 1.80195,4.66018 2.11254,1.3048 5.28134,1.86397 5.28134,1.86397 l 6.52363,23.73499 h 0.99425 l 0.18655,1.11827 0.49713,0.24857 v 0.24856 l -0.31057,0.31058 1.18029,4.47363 2.98224,-0.99426 -1.18029,-4.28708 -0.68368,-0.3731 0.37311,-0.37259 -0.18655,-0.8077 -0.24857,-0.43511 0.74569,-0.37259 -6.39961,-24.29413 2.54714,-2.92023 0.43511,-0.43512 0.68368,-0.74569 0.8077,-1.05626 0.62115,-0.31058 1.24282,-0.49713 0.74518,-1.2423 0.93224,-0.43511 h 0.86971 l 0.99426,-0.12454 0.86971,-1.67742 2.05052,-0.12402 0.86972,-0.87024 h 0.55965 c 0,0 2.0504,0.18683 3.1688,-0.74517 1.11841,-0.932 1.49087,-3.79047 1.49087,-3.79047 0,0 0.0622,-0.68333 0.74569,-1.11827 0.68347,-0.43493 2.60966,-1.86397 2.60966,-1.86397 l 0.68368,-1.05627 0.74517,-0.12454 c 0,0 1.98835,-1.42867 2.85822,-3.10627 0.86986,-1.6776 0.80771,-3.29334 0.80771,-3.29334 0,0 2.17469,-1.86391 2.36109,-5.59191 0.1864,-3.728 -0.4346,-12.48864 -0.4346,-12.48864 0,0 0.24817,-0.68338 0.18604,-1.36684 -0.0621,-0.68347 -0.18604,-4.59817 -0.18604,-4.59817 0,0 0.43452,-2.23652 -0.0625,-4.10052 -0.49707,-1.864 -1.61541,-3.41737 -1.61541,-3.41737 l -1.67742,-4.59817 0.24857,-0.18655 0.24856,0.37311 0.24856,-0.37311 0.31058,-0.86971 -0.18655,-0.55914 0.12454,-1.30483 0.18603,-0.062 0.49713,1.18029 2.29909,-1.05627 -0.7457,-1.11828 c 0,0 2.54759,-1.67769 0.99426,-6.02702 -1.55333,-4.34934 -2.11253,-3.29282 -2.11253,-3.29282 0,0 -0.74542,-1.98852 -1.67742,-3.04478 -0.932,-1.05627 -1.30483,-0.68316 -1.30483,-0.68316 l -0.49713,-0.8077 h -2.48563 l -0.74569,-1.9265 -1.30432,0.74569 -1.1808,-0.31057 0.43511,-0.49713 -0.74569,-2.733684 c 0,0 -0.12436,-1.367055 -1.80196,-2.050521 -1.6776,-0.683467 -4.66018,-1.242819 -4.66018,-1.242819 0,0 -1.49101,0.248594 -1.67741,0.497128 -0.1864,0.248533 -1.05645,-0.931726 -2.54765,-0.931726 -1.4912,0 -1.86397,0.559139 -1.86397,0.559139 0,0 -1.31036,-0.764882 -2.39572,-0.809253 z m -30.442587,25.470276 0.922941,0.26355 c 0,0 0.702701,0.57149 1.142049,0.79117 0.439349,0.2197 1.010274,0.0879 1.010274,0.0879 0,0 -0.263592,0.4391 -0.08785,1.09812 0.175739,0.65902 0.439767,1.23042 0.439767,1.23042 v 0.83457 l 0.351399,0.5271 0.219625,0.5271 0.307475,0.26407 0.3514,0.39532 0.263549,0.65888 0.219625,0.74672 0.26355,0.65939 0.395842,0.7028 1.098124,0.96635 0.439249,1.18649 0.703317,1.84537 0.131775,0.74672 0.395324,1.1865 0.307475,0.57102 0.3514,-0.1757 0.483174,0.13177 0.08785,0.3514 -0.527099,0.1757 -0.483175,-0.0879 -0.483175,0.3514 -0.219624,0.3514 -0.3514,0.13178 -0.176217,-0.30748 -0.1757,-0.26355 -0.307474,-0.30747 -0.307475,-0.13178 -0.131775,-0.30747 0.08785,-0.57154 -0.1757,-0.79065 -0.219625,-1.0542 -0.219625,-0.39532 -0.307474,-0.22015 -0.1757,-0.39532 v -0.48318 l 0.1757,-0.96635 -0.04393,-0.74724 -0.26355,-0.61495 -0.747241,-1.18649 -0.43925,-1.36167 -0.746725,-0.5271 -0.307474,-0.79117 -0.527617,0.30748 -0.26355,-0.43925 -0.08785,-0.57103 -0.08785,-0.7028 -0.131775,-0.83509 -0.26355,-0.83457 -0.483175,-0.48318 -1.318266,-1.05471 z m 15.201657,19.02365 0.92242,0.30799 0.39533,-0.0884 1.66966,1.49397 0.30748,0.39532 0.43925,-0.0439 c 0,0 1.09871,1.40602 3.07578,1.80144 1.97707,0.39541 2.98741,-0.0439 2.98741,-0.0439 0,0 0.79109,-6e-5 1.14257,0.26355 0.35147,0.26361 1.8889,0.96696 3.64629,0.57155 1.7574,-0.39542 2.5042,-0.79111 2.67994,-1.05472 0.17574,-0.26361 0.13177,-0.83457 0.13177,-0.83457 l 0.70332,0.21962 c 0,0 -0.57111,2.94363 -0.21963,4.61316 0.35148,1.66952 0.96635,2.24069 0.96635,2.24069 l 0.39533,0.74672 c 0,0 -0.74683,1.05439 -0.26355,2.50424 0.48329,1.44985 1.18649,3.60288 1.18649,3.60288 l 0.1757,1.44952 0.3514,3.38326 -1.09864,0.5271 0.0439,0.5271 -0.7028,-0.43925 -1.97714,2.06499 c 0,0 -0.57093,0.92272 -0.92242,1.93322 -0.35148,1.0105 -0.65939,1.84536 -0.65939,1.84536 0,0 -0.74665,0.0877 -1.0542,0.7028 -0.30754,0.61509 -0.43925,1.36219 -0.43925,1.36219 l -0.79117,0.96635 -0.92242,0.83457 -0.61495,0.52762 v 0.48318 l -0.96687,0.8785 -1.84485,-0.43925 -3.38325,-12.12588 -0.57103,-0.21962 0.1757,-0.61547 -0.0439,-0.30748 0.21962,-0.35139 -1.31826,-4.96456 -0.13178,-1.58182 -0.39532,-1.62522 -0.43925,-2.63653 -0.7028,-2.72387 -0.39533,-1.05419 -0.30799,-0.39533 -0.3514,-0.39584 -0.57102,-0.43925 0.30747,-1.01027 -0.57102,-0.96687 -0.26355,-0.61495 z" /></g></g></svg>
